# MagicaVoxel @ Ephtracy

# material
mtllib SimpleDoctor.mtl
usemtl palette

# normals
vn -1 0 0
vn 1 0 0
vn 0 0 1
vn 0 0 -1
vn 0 -1 0
vn 0 1 0

# texcoords
vt 0.0332031 0.5
vt 0.779297 0.5
vt 0.923828 0.5
vt 0.958984 0.5
vt 0.962891 0.5
vt 0.966797 0.5
vt 0.970703 0.5
vt 0.974609 0.5
vt 0.978516 0.5
vt 0.990234 0.5

# verts
v -3 3 0.5
v -3 3 -0.5
v -3 4 0.5
v -3 4 -0.5
v -3 7 0.5
v -3 7 -0.5
v -3 9 0.5
v -3 9 -1.5
v -3 10 1.5
v -3 10 0.5
v -3 10 -0.5
v -3 11 1.5
v -3 11 0.5
v -3 11 -0.5
v -3 11 -1.5
v -2 0 0.5
v -2 0 -0.5
v -2 1 0.5
v -2 1 -0.5
v -2 3 1.5
v -2 3 0.5
v -2 3 -0.5
v -2 3 -1.5
v -2 4 0.5
v -2 4 -0.5
v -2 7 2.5
v -2 7 1.5
v -2 7 0.5
v -2 7 -0.5
v -2 7 -1.5
v -2 8 2.5
v -2 8 1.5
v -2 8 -1.5
v -2 9 1.5
v -2 9 0.5
v -2 9 -1.5
v -2 9 -2.5
v -2 10 1.5
v -2 10 0.5
v -2 10 -0.5
v -2 11 0.5
v -2 11 -0.5
v -2 11 -1.5
v -2 11 -2.5
v -2 12 0.5
v -2 12 -1.5
v -1 6 2.5
v -1 6 1.5
v -1 7 2.5
v -1 7 1.5
v -1 8 -1.5
v -1 8 -2.5
v -1 9 -1.5
v -1 9 -2.5
v -1 9 -3.5
v -1 10 -2.5
v -1 10 -3.5
v 1 0 0.5
v 1 0 -0.5
v 1 1 0.5
v 1 1 -0.5
v 1 3 0.5
v 1 3 -0.5
v 1 7 2.5
v 1 7 1.5
v 1 8 2.5
v 1 8 1.5
v -1 0 0.5
v -1 0 -0.5
v -1 1 0.5
v -1 1 -0.5
v -1 3 0.5
v -1 3 -0.5
v -1 7 2.5
v -1 7 1.5
v -1 8 2.5
v -1 8 1.5
v 1 6 2.5
v 1 6 1.5
v 1 7 2.5
v 1 7 1.5
v 1 8 -1.5
v 1 8 -2.5
v 1 9 -1.5
v 1 9 -2.5
v 1 9 -3.5
v 1 10 -2.5
v 1 10 -3.5
v 2 0 0.5
v 2 0 -0.5
v 2 1 0.5
v 2 1 -0.5
v 2 3 1.5
v 2 3 0.5
v 2 3 -0.5
v 2 3 -1.5
v 2 4 0.5
v 2 4 -0.5
v 2 7 2.5
v 2 7 1.5
v 2 7 0.5
v 2 7 -0.5
v 2 7 -1.5
v 2 8 2.5
v 2 8 1.5
v 2 8 0.5
v 2 8 -0.5
v 2 8 -1.5
v 2 9 1.5
v 2 9 0.5
v 2 9 -0.5
v 2 9 -1.5
v 2 9 -2.5
v 2 10 1.5
v 2 10 0.5
v 2 11 0.5
v 2 11 -1.5
v 2 11 -2.5
v 2 12 0.5
v 2 12 -1.5
v 3 3 0.5
v 3 3 -0.5
v 3 4 0.5
v 3 4 -0.5
v 3 7 0.5
v 3 7 -0.5
v 3 8 0.5
v 3 8 -0.5
v 3 9 -0.5
v 3 9 -1.5
v 3 10 1.5
v 3 10 0.5
v 3 11 1.5
v 3 11 0.5
v 3 11 -1.5
v -2 7 2.5
v -2 8 2.5
v -1 6 2.5
v -1 7 2.5
v -1 8 2.5
v 1 6 2.5
v 1 7 2.5
v 1 8 2.5
v 2 7 2.5
v 2 8 2.5
v -3 10 1.5
v -3 11 1.5
v -2 3 1.5
v -2 7 1.5
v -2 8 1.5
v -2 9 1.5
v -2 10 1.5
v -2 11 1.5
v -1 4 1.5
v -1 6 1.5
v -1 7 1.5
v -1 8 1.5
v -1 9 1.5
v -1 10 1.5
v -1 11 1.5
v 0 5 1.5
v 0 6 1.5
v 1 4 1.5
v 1 5 1.5
v 1 6 1.5
v 1 7 1.5
v 1 8 1.5
v 1 9 1.5
v 1 10 1.5
v 1 11 1.5
v 2 3 1.5
v 2 7 1.5
v 2 8 1.5
v 2 9 1.5
v 2 10 1.5
v 2 11 1.5
v 3 10 1.5
v 3 11 1.5
v -3 3 0.5
v -3 4 0.5
v -3 7 0.5
v -3 9 0.5
v -3 10 0.5
v -2 0 0.5
v -2 1 0.5
v -2 3 0.5
v -2 4 0.5
v -2 7 0.5
v -2 9 0.5
v -2 10 0.5
v -2 11 0.5
v -2 12 0.5
v -1 0 0.5
v -1 1 0.5
v -1 3 0.5
v -1 11 0.5
v -1 12 0.5
v 1 0 0.5
v 1 1 0.5
v 1 3 0.5
v 1 11 0.5
v 1 12 0.5
v 2 0 0.5
v 2 1 0.5
v 2 3 0.5
v 2 4 0.5
v 2 7 0.5
v 2 8 0.5
v 2 9 0.5
v 2 10 0.5
v 2 11 0.5
v 2 12 0.5
v 3 3 0.5
v 3 4 0.5
v 3 7 0.5
v 3 8 0.5
v 3 10 0.5
v -3 10 -0.5
v -3 11 -0.5
v -2 10 -0.5
v -2 11 -0.5
v -3 10 0.5
v -3 11 0.5
v -2 10 0.5
v -2 11 0.5
v -3 3 -0.5
v -3 4 -0.5
v -3 7 -0.5
v -2 0 -0.5
v -2 1 -0.5
v -2 3 -0.5
v -2 4 -0.5
v -2 7 -0.5
v -1 0 -0.5
v -1 1 -0.5
v -1 3 -0.5
v 1 0 -0.5
v 1 1 -0.5
v 1 3 -0.5
v 2 0 -0.5
v 2 1 -0.5
v 2 3 -0.5
v 2 4 -0.5
v 2 7 -0.5
v 2 8 -0.5
v 2 9 -0.5
v 3 3 -0.5
v 3 4 -0.5
v 3 7 -0.5
v 3 8 -0.5
v 3 9 -0.5
v -3 9 -1.5
v -3 11 -1.5
v -2 3 -1.5
v -2 7 -1.5
v -2 8 -1.5
v -2 9 -1.5
v -2 11 -1.5
v -2 12 -1.5
v -1 8 -1.5
v -1 9 -1.5
v -1 11 -1.5
v -1 12 -1.5
v 1 8 -1.5
v 1 9 -1.5
v 1 11 -1.5
v 1 12 -1.5
v 2 3 -1.5
v 2 7 -1.5
v 2 8 -1.5
v 2 9 -1.5
v 2 11 -1.5
v 2 12 -1.5
v 3 9 -1.5
v 3 11 -1.5
v -2 9 -2.5
v -2 11 -2.5
v -1 8 -2.5
v -1 9 -2.5
v -1 10 -2.5
v 1 8 -2.5
v 1 9 -2.5
v 1 10 -2.5
v 2 9 -2.5
v 2 11 -2.5
v -1 9 -3.5
v -1 10 -3.5
v 1 9 -3.5
v 1 10 -3.5
v -2 0 0.5
v -1 0 0.5
v 1 0 0.5
v 2 0 0.5
v -2 0 -0.5
v -1 0 -0.5
v 1 0 -0.5
v 2 0 -0.5
v -2 3 1.5
v 2 3 1.5
v -3 3 0.5
v -2 3 0.5
v -1 3 0.5
v 1 3 0.5
v 2 3 0.5
v 3 3 0.5
v -3 3 -0.5
v -2 3 -0.5
v -1 3 -0.5
v 1 3 -0.5
v 2 3 -0.5
v 3 3 -0.5
v -2 3 -1.5
v 2 3 -1.5
v -1 6 2.5
v 1 6 2.5
v -1 6 1.5
v 0 6 1.5
v 1 6 1.5
v -2 7 2.5
v -1 7 2.5
v 1 7 2.5
v 2 7 2.5
v -2 7 1.5
v -1 7 1.5
v 1 7 1.5
v 2 7 1.5
v 2 8 0.5
v 3 8 0.5
v 2 8 -0.5
v 3 8 -0.5
v -1 8 -1.5
v 1 8 -1.5
v -1 8 -2.5
v 1 8 -2.5
v -3 9 0.5
v -2 9 0.5
v 2 9 -0.5
v 3 9 -0.5
v -3 9 -1.5
v -2 9 -1.5
v -1 9 -1.5
v 1 9 -1.5
v 2 9 -1.5
v 3 9 -1.5
v -2 9 -2.5
v -1 9 -2.5
v 1 9 -2.5
v 2 9 -2.5
v -1 9 -3.5
v 1 9 -3.5
v -3 10 1.5
v -2 10 1.5
v 2 10 1.5
v 3 10 1.5
v -3 10 0.5
v -2 10 0.5
v 2 10 0.5
v 3 10 0.5
v -1 7 2.5
v 1 7 2.5
v -1 7 1.5
v 1 7 1.5
v -3 7 0.5
v -2 7 0.5
v 2 7 0.5
v 3 7 0.5
v -3 7 -0.5
v -2 7 -0.5
v 2 7 -0.5
v 3 7 -0.5
v -2 8 2.5
v -1 8 2.5
v 1 8 2.5
v 2 8 2.5
v -2 8 1.5
v -1 8 1.5
v 1 8 1.5
v 2 8 1.5
v -3 10 0.5
v -2 10 0.5
v -3 10 -0.5
v -2 10 -0.5
v -1 10 -2.5
v 1 10 -2.5
v -1 10 -3.5
v 1 10 -3.5
v -3 11 1.5
v -2 11 1.5
v -1 11 1.5
v 1 11 1.5
v 2 11 1.5
v 3 11 1.5
v -3 11 0.5
v -2 11 0.5
v -1 11 0.5
v 1 11 0.5
v 2 11 0.5
v 3 11 0.5
v -3 11 -0.5
v -2 11 -0.5
v -3 11 -1.5
v -2 11 -1.5
v -1 11 -1.5
v 1 11 -1.5
v 2 11 -1.5
v 3 11 -1.5
v -2 11 -2.5
v 2 11 -2.5
v -2 12 0.5
v -1 12 0.5
v 1 12 0.5
v 2 12 0.5
v -2 12 -1.5
v -1 12 -1.5
v 1 12 -1.5
v 2 12 -1.5

# faces
f 3/1/1 2/1/1 1/1/1
f 4/1/1 2/1/1 3/1/1
f 5/4/1 4/4/1 3/4/1
f 6/4/1 4/4/1 5/4/1
f 10/6/1 8/6/1 7/6/1
f 11/6/1 8/6/1 10/6/1
f 12/9/1 10/9/1 9/9/1
f 13/9/1 10/9/1 12/9/1
f 14/6/1 8/6/1 11/6/1
f 15/6/1 8/6/1 14/6/1
f 18/10/1 17/10/1 16/10/1
f 19/10/1 17/10/1 18/10/1
f 21/3/1 19/3/1 18/3/1
f 22/3/1 19/3/1 21/3/1
f 24/4/1 21/4/1 20/4/1
f 25/4/1 23/4/1 22/4/1
f 27/4/1 24/4/1 20/4/1
f 28/4/1 24/4/1 27/4/1
f 29/4/1 23/4/1 25/4/1
f 30/4/1 23/4/1 29/4/1
f 31/6/1 28/6/1 27/6/1
f 31/6/1 27/6/1 26/6/1
f 31/6/1 30/6/1 29/6/1
f 31/6/1 29/6/1 28/6/1
f 32/6/1 30/6/1 31/6/1
f 33/6/1 30/6/1 32/6/1
f 34/1/1 33/1/1 32/1/1
f 35/1/1 33/1/1 34/1/1
f 36/1/1 33/1/1 35/1/1
f 38/10/1 35/10/1 34/10/1
f 39/10/1 35/10/1 38/10/1
f 41/1/1 40/1/1 39/1/1
f 42/1/1 40/1/1 41/1/1
f 43/6/1 37/6/1 36/6/1
f 44/6/1 37/6/1 43/6/1
f 45/6/1 42/6/1 41/6/1
f 45/6/1 43/6/1 42/6/1
f 46/6/1 43/6/1 45/6/1
f 49/6/1 48/6/1 47/6/1
f 50/6/1 48/6/1 49/6/1
f 53/6/1 52/6/1 51/6/1
f 54/6/1 52/6/1 53/6/1
f 56/6/1 55/6/1 54/6/1
f 57/6/1 55/6/1 56/6/1
f 60/10/1 59/10/1 58/10/1
f 61/10/1 59/10/1 60/10/1
f 62/3/1 61/3/1 60/3/1
f 63/3/1 61/3/1 62/3/1
f 66/6/1 65/6/1 64/6/1
f 67/6/1 65/6/1 66/6/1
f 68/10/2 69/10/2 70/10/2
f 70/10/2 69/10/2 71/10/2
f 70/3/2 71/3/2 72/3/2
f 72/3/2 71/3/2 73/3/2
f 74/6/2 75/6/2 76/6/2
f 76/6/2 75/6/2 77/6/2
f 78/6/2 79/6/2 80/6/2
f 80/6/2 79/6/2 81/6/2
f 82/6/2 83/6/2 84/6/2
f 84/6/2 83/6/2 85/6/2
f 85/6/2 86/6/2 87/6/2
f 87/6/2 86/6/2 88/6/2
f 89/10/2 90/10/2 91/10/2
f 91/10/2 90/10/2 92/10/2
f 91/3/2 92/3/2 94/3/2
f 94/3/2 92/3/2 95/3/2
f 93/4/2 94/4/2 97/4/2
f 95/4/2 96/4/2 98/4/2
f 93/4/2 97/4/2 100/4/2
f 100/4/2 97/4/2 101/4/2
f 98/4/2 96/4/2 102/4/2
f 102/4/2 96/4/2 103/4/2
f 100/6/2 101/6/2 104/6/2
f 99/6/2 100/6/2 104/6/2
f 102/6/2 103/6/2 104/6/2
f 101/6/2 102/6/2 104/6/2
f 104/6/2 103/6/2 105/6/2
f 105/6/2 103/6/2 106/6/2
f 106/6/2 103/6/2 107/6/2
f 107/6/2 103/6/2 108/6/2
f 105/1/2 106/1/2 109/1/2
f 109/1/2 106/1/2 110/1/2
f 107/1/2 108/1/2 111/1/2
f 111/1/2 108/1/2 112/1/2
f 109/10/2 110/10/2 114/10/2
f 114/10/2 110/10/2 115/10/2
f 112/6/2 113/6/2 117/6/2
f 117/6/2 113/6/2 118/6/2
f 116/6/2 117/6/2 119/6/2
f 119/6/2 117/6/2 120/6/2
f 121/1/2 122/1/2 123/1/2
f 123/1/2 122/1/2 124/1/2
f 123/4/2 124/4/2 125/4/2
f 125/4/2 124/4/2 126/4/2
f 127/6/2 128/6/2 129/6/2
f 127/6/2 129/6/2 132/6/2
f 129/6/2 130/6/2 132/6/2
f 131/7/2 132/7/2 133/7/2
f 132/6/2 130/6/2 134/6/2
f 133/7/2 132/7/2 134/7/2
f 134/6/2 130/6/2 135/6/2
f 139/6/3 137/6/3 136/6/3
f 140/6/3 137/6/3 139/6/3
f 141/6/3 139/6/3 138/6/3
f 142/6/3 139/6/3 141/6/3
f 144/6/3 143/6/3 142/6/3
f 145/6/3 143/6/3 144/6/3
f 152/9/3 147/9/3 146/9/3
f 153/9/3 147/9/3 152/9/3
f 154/4/3 149/4/3 148/4/3
f 155/4/3 149/4/3 154/4/3
f 156/4/3 149/4/3 155/4/3
f 157/1/3 151/1/3 150/1/3
f 158/10/3 152/10/3 151/10/3
f 158/1/3 151/1/3 157/1/3
f 159/6/3 153/6/3 152/6/3
f 159/10/3 152/10/3 158/10/3
f 160/6/3 153/6/3 159/6/3
f 161/2/3 155/2/3 154/2/3
f 162/2/3 155/2/3 161/2/3
f 163/4/3 154/4/3 148/4/3
f 163/2/3 161/2/3 154/2/3
f 164/5/3 162/5/3 161/5/3
f 164/2/3 161/2/3 163/2/3
f 165/5/3 162/5/3 164/5/3
f 166/1/3 157/1/3 156/1/3
f 166/1/3 158/1/3 157/1/3
f 166/1/3 160/1/3 159/1/3
f 166/1/3 159/1/3 158/1/3
f 167/1/3 160/1/3 166/1/3
f 168/1/3 160/1/3 167/1/3
f 169/1/3 160/1/3 168/1/3
f 170/1/3 160/1/3 169/1/3
f 171/4/3 165/4/3 164/4/3
f 171/4/3 164/4/3 163/4/3
f 171/4/3 163/4/3 148/4/3
f 171/4/3 166/4/3 165/4/3
f 172/4/3 166/4/3 171/4/3
f 173/1/3 168/1/3 167/1/3
f 174/10/3 169/10/3 168/10/3
f 174/1/3 168/1/3 173/1/3
f 175/8/3 170/8/3 169/8/3
f 175/10/3 169/10/3 174/10/3
f 176/8/3 170/8/3 175/8/3
f 177/7/3 176/7/3 175/7/3
f 178/7/3 176/7/3 177/7/3
f 186/1/3 180/1/3 179/1/3
f 187/4/3 181/4/3 180/4/3
f 187/1/3 180/1/3 186/1/3
f 188/4/3 181/4/3 187/4/3
f 189/6/3 183/6/3 182/6/3
f 190/6/3 183/6/3 189/6/3
f 193/10/3 185/10/3 184/10/3
f 194/3/3 186/3/3 185/3/3
f 194/10/3 185/10/3 193/10/3
f 195/3/3 186/3/3 194/3/3
f 196/6/3 192/6/3 191/6/3
f 197/6/3 192/6/3 196/6/3
f 201/1/3 197/1/3 196/1/3
f 202/1/3 197/1/3 201/1/3
f 203/10/3 199/10/3 198/10/3
f 204/3/3 200/3/3 199/3/3
f 204/10/3 199/10/3 203/10/3
f 205/3/3 200/3/3 204/3/3
f 211/6/3 202/6/3 201/6/3
f 212/6/3 202/6/3 211/6/3
f 213/1/3 206/1/3 205/1/3
f 214/4/3 207/4/3 206/4/3
f 214/1/3 206/1/3 213/1/3
f 215/4/3 207/4/3 214/4/3
f 216/6/3 210/6/3 209/6/3
f 216/6/3 209/6/3 208/6/3
f 217/6/3 210/6/3 216/6/3
f 220/6/3 219/6/3 218/6/3
f 221/6/3 219/6/3 220/6/3
f 222/9/4 223/9/4 224/9/4
f 224/9/4 223/9/4 225/9/4
f 226/1/4 227/1/4 231/1/4
f 227/4/4 228/4/4 232/4/4
f 231/1/4 227/1/4 232/1/4
f 232/4/4 228/4/4 233/4/4
f 229/10/4 230/10/4 234/10/4
f 230/3/4 231/3/4 235/3/4
f 234/10/4 230/10/4 235/10/4
f 235/3/4 231/3/4 236/3/4
f 237/10/4 238/10/4 240/10/4
f 238/3/4 239/3/4 241/3/4
f 240/10/4 238/10/4 241/10/4
f 241/3/4 239/3/4 242/3/4
f 242/1/4 243/1/4 247/1/4
f 243/4/4 244/4/4 248/4/4
f 247/1/4 243/1/4 248/1/4
f 248/4/4 244/4/4 249/4/4
f 245/6/4 246/6/4 250/6/4
f 250/6/4 246/6/4 251/6/4
f 252/6/4 253/6/4 257/6/4
f 257/6/4 253/6/4 258/6/4
f 255/6/4 256/6/4 260/6/4
f 256/1/4 257/1/4 260/1/4
f 260/1/4 257/1/4 261/1/4
f 258/6/4 259/6/4 262/6/4
f 262/6/4 259/6/4 263/6/4
f 255/6/4 260/6/4 264/6/4
f 262/1/4 263/1/4 266/1/4
f 266/1/4 263/1/4 267/1/4
f 254/4/4 255/4/4 268/4/4
f 255/6/4 264/6/4 269/6/4
f 268/4/4 255/4/4 269/4/4
f 264/1/4 265/1/4 270/1/4
f 269/6/4 264/6/4 270/6/4
f 270/1/4 265/1/4 271/1/4
f 266/6/4 267/6/4 272/6/4
f 272/6/4 267/6/4 273/6/4
f 271/6/4 272/6/4 274/6/4
f 274/6/4 272/6/4 275/6/4
f 276/6/4 277/6/4 279/6/4
f 279/6/4 277/6/4 280/6/4
f 278/6/4 279/6/4 281/6/4
f 281/6/4 279/6/4 282/6/4
f 280/6/4 277/6/4 283/6/4
f 282/6/4 283/6/4 284/6/4
f 283/6/4 277/6/4 285/6/4
f 284/6/4 283/6/4 285/6/4
f 286/6/4 287/6/4 288/6/4
f 288/6/4 287/6/4 289/6/4
f 294/10/5 291/10/5 290/10/5
f 295/10/5 291/10/5 294/10/5
f 296/10/5 293/10/5 292/10/5
f 297/10/5 293/10/5 296/10/5
f 301/4/5 299/4/5 298/4/5
f 302/4/5 299/4/5 301/4/5
f 303/4/5 299/4/5 302/4/5
f 304/4/5 299/4/5 303/4/5
f 306/1/5 301/1/5 300/1/5
f 307/1/5 301/1/5 306/1/5
f 308/4/5 303/4/5 302/4/5
f 309/4/5 303/4/5 308/4/5
f 310/1/5 305/1/5 304/1/5
f 311/1/5 305/1/5 310/1/5
f 312/4/5 309/4/5 308/4/5
f 312/4/5 310/4/5 309/4/5
f 312/4/5 308/4/5 307/4/5
f 313/4/5 310/4/5 312/4/5
f 316/6/5 315/6/5 314/6/5
f 317/6/5 315/6/5 316/6/5
f 318/6/5 315/6/5 317/6/5
f 323/6/5 320/6/5 319/6/5
f 324/6/5 320/6/5 323/6/5
f 325/6/5 322/6/5 321/6/5
f 326/6/5 322/6/5 325/6/5
f 329/6/5 328/6/5 327/6/5
f 330/6/5 328/6/5 329/6/5
f 333/6/5 332/6/5 331/6/5
f 334/6/5 332/6/5 333/6/5
f 339/6/5 336/6/5 335/6/5
f 340/6/5 336/6/5 339/6/5
f 343/6/5 338/6/5 337/6/5
f 344/6/5 338/6/5 343/6/5
f 345/6/5 341/6/5 340/6/5
f 346/6/5 341/6/5 345/6/5
f 347/6/5 343/6/5 342/6/5
f 348/6/5 343/6/5 347/6/5
f 349/6/5 347/6/5 346/6/5
f 350/6/5 347/6/5 349/6/5
f 355/9/5 352/9/5 351/9/5
f 356/9/5 352/9/5 355/9/5
f 357/7/5 354/7/5 353/7/5
f 358/7/5 354/7/5 357/7/5
f 359/6/6 360/6/6 361/6/6
f 361/6/6 360/6/6 362/6/6
f 363/4/6 364/4/6 367/4/6
f 367/4/6 364/4/6 368/4/6
f 365/4/6 366/4/6 369/4/6
f 369/4/6 366/4/6 370/4/6
f 371/6/6 372/6/6 375/6/6
f 375/6/6 372/6/6 376/6/6
f 373/6/6 374/6/6 377/6/6
f 377/6/6 374/6/6 378/6/6
f 379/6/6 380/6/6 381/6/6
f 381/6/6 380/6/6 382/6/6
f 383/6/6 384/6/6 385/6/6
f 385/6/6 384/6/6 386/6/6
f 387/9/6 388/9/6 393/9/6
f 388/6/6 389/6/6 394/6/6
f 393/9/6 388/9/6 394/9/6
f 389/1/6 390/1/6 395/1/6
f 394/6/6 389/6/6 395/6/6
f 390/8/6 391/8/6 396/8/6
f 395/1/6 390/1/6 396/1/6
f 391/7/6 392/7/6 397/7/6
f 396/8/6 391/8/6 397/8/6
f 397/7/6 392/7/6 398/7/6
f 399/6/6 400/6/6 401/6/6
f 401/6/6 400/6/6 402/6/6
f 397/6/6 398/6/6 405/6/6
f 405/6/6 398/6/6 406/6/6
f 403/6/6 404/6/6 407/6/6
f 404/6/6 405/6/6 407/6/6
f 402/6/6 403/6/6 407/6/6
f 407/6/6 405/6/6 408/6/6
f 409/6/6 410/6/6 413/6/6
f 410/1/6 411/1/6 414/1/6
f 413/6/6 410/6/6 414/6/6
f 411/6/6 412/6/6 415/6/6
f 414/1/6 411/1/6 415/1/6
f 415/6/6 412/6/6 416/6/6
