# MagicaVoxel @ Ephtracy

# material
mtllib SimplePatient.mtl
usemtl palette

# normals
vn -1 0 0
vn 1 0 0
vn 0 0 1
vn 0 0 -1
vn 0 -1 0
vn 0 1 0

# texcoords
vt 0.0332031 0.5
vt 0.255859 0.5
vt 0.447266 0.5
vt 0.865234 0.5
vt 0.923828 0.5
vt 0.958984 0.5
vt 0.966797 0.5
vt 0.990234 0.5

# verts
v -3 3 0.5
v -3 3 -0.5
v -3 4 0.5
v -3 4 -0.5
v -3 5 0.5
v -3 5 -0.5
v -3 6 0.5
v -3 6 -0.5
v -3 7 0.5
v -3 7 -0.5
v -2 0 0.5
v -2 0 -0.5
v -2 1 0.5
v -2 1 -0.5
v -2 3 1.5
v -2 3 0.5
v -2 3 -0.5
v -2 3 -1.5
v -2 4 0.5
v -2 4 -0.5
v -2 5 0.5
v -2 5 -0.5
v -2 6 0.5
v -2 6 -0.5
v -2 6 -1.5
v -2 6 -2.5
v -2 6 -3.5
v -2 7 1.5
v -2 7 0.5
v -2 7 -0.5
v -2 7 -1.5
v -2 7 -2.5
v -2 7 -3.5
v -2 9 1.5
v -2 9 0.5
v -2 10 1.5
v -2 10 0.5
v -2 11 1.5
v -2 11 -1.5
v -1 6 -1.5
v -1 6 -2.5
v -1 7 -1.5
v -1 7 -2.5
v -1 8 -1.5
v -1 8 -2.5
v -1 9 -2.5
v -1 9 -3.5
v -1 10 -2.5
v -1 10 -3.5
v -1 11 1.5
v -1 11 -1.5
v -1 11 -2.5
v -1 12 1.5
v -1 12 0.5
v -1 13 0.5
v -1 13 -1.5
v 0 10 2.5
v 0 10 1.5
v 0 11 2.5
v 0 11 1.5
v 1 0 0.5
v 1 0 -0.5
v 1 1 0.5
v 1 1 -0.5
v 1 3 0.5
v 1 3 -0.5
v 1 9 2.5
v 1 9 1.5
v 1 10 2.5
v 1 10 1.5
v -1 0 0.5
v -1 0 -0.5
v -1 1 0.5
v -1 1 -0.5
v -1 3 0.5
v -1 3 -0.5
v -1 6 -2.5
v -1 6 -3.5
v -1 7 -2.5
v -1 7 -3.5
v 1 6 -1.5
v 1 6 -2.5
v 1 7 -1.5
v 1 7 -2.5
v 1 8 -1.5
v 1 8 -2.5
v 1 9 -1.5
v 1 9 -2.5
v 1 9 -3.5
v 1 10 -2.5
v 1 10 -3.5
v 1 12 0.5
v 1 12 -1.5
v 1 13 0.5
v 1 13 -1.5
v 2 0 0.5
v 2 0 -0.5
v 2 1 0.5
v 2 1 -0.5
v 2 3 1.5
v 2 3 0.5
v 2 3 -0.5
v 2 3 -1.5
v 2 4 1.5
v 2 4 0.5
v 2 4 -0.5
v 2 5 0.5
v 2 5 -0.5
v 2 6 0.5
v 2 6 -0.5
v 2 6 -1.5
v 2 7 1.5
v 2 7 0.5
v 2 7 -0.5
v 2 7 -1.5
v 2 9 1.5
v 2 9 -1.5
v 2 9 -2.5
v 2 10 0.5
v 2 10 -0.5
v 2 11 1.5
v 2 11 0.5
v 2 11 -0.5
v 2 11 -1.5
v 2 11 -2.5
v 2 12 1.5
v 2 12 -1.5
v 3 3 0.5
v 3 3 -0.5
v 3 4 0.5
v 3 4 -0.5
v 3 5 0.5
v 3 5 -0.5
v 3 6 0.5
v 3 6 -0.5
v 3 7 0.5
v 3 7 -0.5
v 3 9 2.5
v 3 9 1.5
v 3 9 -0.5
v 3 9 -1.5
v 3 10 1.5
v 3 10 0.5
v 3 10 -0.5
v 3 11 2.5
v 3 11 0.5
v 3 11 -0.5
v 3 11 -1.5
v 4 9 1.5
v 4 9 -0.5
v 4 10 1.5
v 4 10 -0.5
v 0 10 2.5
v 0 11 2.5
v 1 9 2.5
v 1 10 2.5
v 3 9 2.5
v 3 11 2.5
v -2 3 1.5
v -2 7 1.5
v -2 9 1.5
v -2 10 1.5
v -2 11 1.5
v -1 4 1.5
v -1 5 1.5
v -1 9 1.5
v -1 10 1.5
v -1 11 1.5
v -1 12 1.5
v 0 4 1.5
v 0 5 1.5
v 0 6 1.5
v 0 7 1.5
v 0 8 1.5
v 0 10 1.5
v 0 11 1.5
v 1 3 1.5
v 1 4 1.5
v 1 5 1.5
v 1 6 1.5
v 1 7 1.5
v 1 8 1.5
v 1 9 1.5
v 1 10 1.5
v 2 3 1.5
v 2 4 1.5
v 2 7 1.5
v 2 9 1.5
v 2 11 1.5
v 2 12 1.5
v 3 9 1.5
v 3 10 1.5
v 4 9 1.5
v 4 10 1.5
v -3 3 0.5
v -3 4 0.5
v -3 5 0.5
v -3 6 0.5
v -3 7 0.5
v -2 0 0.5
v -2 1 0.5
v -2 3 0.5
v -2 4 0.5
v -2 5 0.5
v -2 6 0.5
v -2 7 0.5
v -1 0 0.5
v -1 1 0.5
v -1 3 0.5
v -1 12 0.5
v -1 13 0.5
v 1 0 0.5
v 1 1 0.5
v 1 3 0.5
v 1 12 0.5
v 1 13 0.5
v 2 0 0.5
v 2 1 0.5
v 2 3 0.5
v 2 4 0.5
v 2 5 0.5
v 2 6 0.5
v 2 7 0.5
v 3 3 0.5
v 3 4 0.5
v 3 5 0.5
v 3 6 0.5
v 3 7 0.5
v 2 10 -0.5
v 2 11 -0.5
v 3 10 -0.5
v 3 11 -0.5
v -2 6 -2.5
v -2 7 -2.5
v -1 6 -2.5
v -1 7 -2.5
v 2 10 0.5
v 2 11 0.5
v 3 10 0.5
v 3 11 0.5
v -3 3 -0.5
v -3 4 -0.5
v -3 5 -0.5
v -3 6 -0.5
v -3 7 -0.5
v -2 0 -0.5
v -2 1 -0.5
v -2 3 -0.5
v -2 4 -0.5
v -2 5 -0.5
v -2 6 -0.5
v -2 7 -0.5
v -1 0 -0.5
v -1 1 -0.5
v -1 3 -0.5
v 1 0 -0.5
v 1 1 -0.5
v 1 3 -0.5
v 2 0 -0.5
v 2 1 -0.5
v 2 3 -0.5
v 2 4 -0.5
v 2 5 -0.5
v 2 6 -0.5
v 2 7 -0.5
v 3 3 -0.5
v 3 4 -0.5
v 3 5 -0.5
v 3 6 -0.5
v 3 7 -0.5
v 3 9 -0.5
v 3 10 -0.5
v 4 9 -0.5
v 4 10 -0.5
v -2 3 -1.5
v -2 6 -1.5
v -2 7 -1.5
v -2 11 -1.5
v -1 3 -1.5
v -1 6 -1.5
v -1 7 -1.5
v -1 8 -1.5
v -1 11 -1.5
v -1 13 -1.5
v 1 3 -1.5
v 1 6 -1.5
v 1 7 -1.5
v 1 8 -1.5
v 1 9 -1.5
v 1 12 -1.5
v 1 13 -1.5
v 2 3 -1.5
v 2 6 -1.5
v 2 7 -1.5
v 2 9 -1.5
v 2 11 -1.5
v 2 12 -1.5
v 3 9 -1.5
v 3 11 -1.5
v -1 6 -2.5
v -1 7 -2.5
v -1 8 -2.5
v -1 9 -2.5
v -1 10 -2.5
v -1 11 -2.5
v 1 6 -2.5
v 1 7 -2.5
v 1 8 -2.5
v 1 9 -2.5
v 1 10 -2.5
v 2 9 -2.5
v 2 11 -2.5
v -2 6 -3.5
v -2 7 -3.5
v -1 6 -3.5
v -1 7 -3.5
v -1 9 -3.5
v -1 10 -3.5
v 1 9 -3.5
v 1 10 -3.5
v -2 0 0.5
v -1 0 0.5
v 1 0 0.5
v 2 0 0.5
v -2 0 -0.5
v -1 0 -0.5
v 1 0 -0.5
v 2 0 -0.5
v -2 3 1.5
v 1 3 1.5
v 2 3 1.5
v -3 3 0.5
v -2 3 0.5
v -1 3 0.5
v 1 3 0.5
v 2 3 0.5
v 3 3 0.5
v -3 3 -0.5
v -2 3 -0.5
v -1 3 -0.5
v 1 3 -0.5
v 2 3 -0.5
v 3 3 -0.5
v -2 3 -1.5
v -1 3 -1.5
v 1 3 -1.5
v 2 3 -1.5
v -1 6 -1.5
v 1 6 -1.5
v -2 6 -2.5
v -1 6 -2.5
v 1 6 -2.5
v -2 6 -3.5
v -1 6 -3.5
v -1 8 -1.5
v 1 8 -1.5
v -1 8 -2.5
v 1 8 -2.5
v 1 9 2.5
v 3 9 2.5
v 1 9 1.5
v 2 9 1.5
v 3 9 1.5
v 4 9 1.5
v 3 9 -0.5
v 4 9 -0.5
v 1 9 -1.5
v 2 9 -1.5
v 3 9 -1.5
v -1 9 -2.5
v 1 9 -2.5
v 2 9 -2.5
v -1 9 -3.5
v 1 9 -3.5
v 0 10 2.5
v 1 10 2.5
v 0 10 1.5
v 1 10 1.5
v -3 7 0.5
v -2 7 0.5
v 2 7 0.5
v 3 7 0.5
v -3 7 -0.5
v -2 7 -0.5
v 2 7 -0.5
v 3 7 -0.5
v -1 7 -1.5
v 1 7 -1.5
v -2 7 -2.5
v -1 7 -2.5
v 1 7 -2.5
v -2 7 -3.5
v -1 7 -3.5
v 3 10 1.5
v 4 10 1.5
v 2 10 0.5
v 3 10 0.5
v 2 10 -0.5
v 3 10 -0.5
v 4 10 -0.5
v -1 10 -2.5
v 1 10 -2.5
v -1 10 -3.5
v 1 10 -3.5
v 0 11 2.5
v 3 11 2.5
v -2 11 1.5
v -1 11 1.5
v 0 11 1.5
v 2 11 1.5
v 2 11 0.5
v 3 11 0.5
v 2 11 -0.5
v 3 11 -0.5
v -2 11 -1.5
v -1 11 -1.5
v 2 11 -1.5
v 3 11 -1.5
v -1 11 -2.5
v 2 11 -2.5
v -1 12 1.5
v 2 12 1.5
v -1 12 0.5
v 1 12 0.5
v 1 12 -1.5
v 2 12 -1.5
v -1 13 0.5
v 1 13 0.5
v -1 13 -1.5
v 1 13 -1.5

# faces
f 3/1/1 2/1/1 1/1/1
f 4/1/1 2/1/1 3/1/1
f 5/6/1 4/6/1 3/6/1
f 6/6/1 4/6/1 5/6/1
f 7/1/1 6/1/1 5/1/1
f 8/1/1 6/1/1 7/1/1
f 9/3/1 8/3/1 7/3/1
f 10/3/1 8/3/1 9/3/1
f 13/7/1 12/7/1 11/7/1
f 14/7/1 12/7/1 13/7/1
f 16/5/1 14/5/1 13/5/1
f 17/5/1 14/5/1 16/5/1
f 19/3/1 16/3/1 15/3/1
f 20/3/1 18/3/1 17/3/1
f 21/3/1 19/3/1 15/3/1
f 22/3/1 18/3/1 20/3/1
f 23/3/1 21/3/1 15/3/1
f 24/3/1 18/3/1 22/3/1
f 25/3/1 18/3/1 24/3/1
f 28/3/1 23/3/1 15/3/1
f 29/3/1 23/3/1 28/3/1
f 30/6/1 25/6/1 24/6/1
f 31/6/1 25/6/1 30/6/1
f 32/6/1 27/6/1 26/6/1
f 33/6/1 27/6/1 32/6/1
f 34/1/1 31/1/1 30/1/1
f 34/1/1 29/1/1 28/1/1
f 34/1/1 30/1/1 29/1/1
f 35/1/1 31/1/1 34/1/1
f 36/8/1 35/8/1 34/8/1
f 37/1/1 31/1/1 35/1/1
f 37/8/1 35/8/1 36/8/1
f 38/1/1 37/1/1 36/1/1
f 39/1/1 31/1/1 37/1/1
f 39/1/1 37/1/1 38/1/1
f 42/6/1 41/6/1 40/6/1
f 43/6/1 41/6/1 42/6/1
f 46/2/1 45/2/1 44/2/1
f 48/2/1 46/2/1 44/2/1
f 48/2/1 47/2/1 46/2/1
f 49/2/1 47/2/1 48/2/1
f 51/2/1 48/2/1 44/2/1
f 52/2/1 48/2/1 51/2/1
f 53/2/1 51/2/1 50/2/1
f 54/2/1 51/2/1 53/2/1
f 55/2/1 51/2/1 54/2/1
f 56/2/1 51/2/1 55/2/1
f 59/2/1 58/2/1 57/2/1
f 60/2/1 58/2/1 59/2/1
f 63/7/1 62/7/1 61/7/1
f 64/7/1 62/7/1 63/7/1
f 65/5/1 64/5/1 63/5/1
f 66/5/1 64/5/1 65/5/1
f 69/2/1 68/2/1 67/2/1
f 70/2/1 68/2/1 69/2/1
f 71/7/2 72/7/2 73/7/2
f 73/7/2 72/7/2 74/7/2
f 73/5/2 74/5/2 75/5/2
f 75/5/2 74/5/2 76/5/2
f 77/6/2 78/6/2 79/6/2
f 79/6/2 78/6/2 80/6/2
f 81/6/2 82/6/2 83/6/2
f 83/6/2 82/6/2 84/6/2
f 85/2/2 86/2/2 87/2/2
f 87/2/2 86/2/2 88/2/2
f 88/2/2 89/2/2 90/2/2
f 90/2/2 89/2/2 91/2/2
f 92/2/2 93/2/2 94/2/2
f 94/2/2 93/2/2 95/2/2
f 96/7/2 97/7/2 98/7/2
f 98/7/2 97/7/2 99/7/2
f 98/5/2 99/5/2 101/5/2
f 101/5/2 99/5/2 102/5/2
f 100/6/2 101/6/2 104/6/2
f 104/6/2 101/6/2 105/6/2
f 102/3/2 103/3/2 106/3/2
f 104/3/2 105/3/2 107/3/2
f 106/3/2 103/3/2 108/3/2
f 104/3/2 107/3/2 109/3/2
f 108/3/2 103/3/2 110/3/2
f 110/3/2 103/3/2 111/3/2
f 104/3/2 109/3/2 112/3/2
f 112/3/2 109/3/2 113/3/2
f 110/6/2 111/6/2 114/6/2
f 114/6/2 111/6/2 115/6/2
f 112/1/2 113/1/2 116/1/2
f 113/1/2 114/1/2 116/1/2
f 114/1/2 115/1/2 116/1/2
f 116/1/2 115/1/2 117/1/2
f 119/1/2 120/1/2 122/1/2
f 122/1/2 120/1/2 123/1/2
f 117/2/2 118/2/2 124/2/2
f 124/2/2 118/2/2 125/2/2
f 122/2/2 123/2/2 126/2/2
f 121/2/2 122/2/2 126/2/2
f 123/2/2 124/2/2 126/2/2
f 126/2/2 124/2/2 127/2/2
f 128/1/2 129/1/2 130/1/2
f 130/1/2 129/1/2 131/1/2
f 130/6/2 131/6/2 132/6/2
f 132/6/2 131/6/2 133/6/2
f 132/1/2 133/1/2 134/1/2
f 134/1/2 133/1/2 135/1/2
f 134/3/2 135/3/2 136/3/2
f 136/3/2 135/3/2 137/3/2
f 138/2/2 139/2/2 142/2/2
f 140/2/2 141/2/2 144/2/2
f 142/2/2 143/2/2 145/2/2
f 138/2/2 142/2/2 145/2/2
f 145/2/2 143/2/2 146/2/2
f 144/2/2 141/2/2 147/2/2
f 147/2/2 141/2/2 148/2/2
f 149/2/2 150/2/2 151/2/2
f 151/2/2 150/2/2 152/2/2
f 156/2/3 154/2/3 153/2/3
f 157/2/3 156/2/3 155/2/3
f 158/2/3 154/2/3 156/2/3
f 158/2/3 156/2/3 157/2/3
f 164/3/3 160/3/3 159/3/3
f 165/3/3 160/3/3 164/3/3
f 166/1/3 161/1/3 160/1/3
f 166/8/3 162/8/3 161/8/3
f 167/1/3 163/1/3 162/1/3
f 167/8/3 162/8/3 166/8/3
f 168/1/3 163/1/3 167/1/3
f 170/6/3 165/6/3 164/6/3
f 170/3/3 164/3/3 159/3/3
f 171/3/3 160/3/3 165/3/3
f 171/6/3 165/6/3 170/6/3
f 172/3/3 160/3/3 171/3/3
f 173/1/3 166/1/3 160/1/3
f 173/3/3 160/3/3 172/3/3
f 173/1/3 168/1/3 167/1/3
f 173/1/3 167/1/3 166/1/3
f 174/1/3 168/1/3 173/1/3
f 175/1/3 168/1/3 174/1/3
f 176/2/3 169/2/3 168/2/3
f 176/1/3 168/1/3 175/1/3
f 177/3/3 170/3/3 159/3/3
f 177/3/3 171/3/3 170/3/3
f 178/3/3 171/3/3 177/3/3
f 179/6/3 172/6/3 171/6/3
f 179/3/3 171/3/3 178/3/3
f 180/3/3 173/3/3 172/3/3
f 180/6/3 172/6/3 179/6/3
f 181/4/3 174/4/3 173/4/3
f 181/3/3 173/3/3 180/3/3
f 182/1/3 175/1/3 174/1/3
f 182/4/3 174/4/3 181/4/3
f 183/1/3 175/1/3 182/1/3
f 184/1/3 175/1/3 183/1/3
f 185/6/3 178/6/3 177/6/3
f 186/3/3 181/3/3 180/3/3
f 186/6/3 178/6/3 185/6/3
f 186/3/3 180/3/3 179/3/3
f 186/3/3 179/3/3 178/3/3
f 187/1/3 183/1/3 182/1/3
f 187/3/3 181/3/3 186/3/3
f 187/1/3 182/1/3 181/1/3
f 188/1/3 183/1/3 187/1/3
f 189/2/3 169/2/3 176/2/3
f 190/2/3 169/2/3 189/2/3
f 193/2/3 192/2/3 191/2/3
f 194/2/3 192/2/3 193/2/3
f 202/1/3 196/1/3 195/1/3
f 203/6/3 197/6/3 196/6/3
f 203/1/3 196/1/3 202/1/3
f 204/1/3 198/1/3 197/1/3
f 204/6/3 197/6/3 203/6/3
f 205/3/3 199/3/3 198/3/3
f 205/1/3 198/1/3 204/1/3
f 206/3/3 199/3/3 205/3/3
f 207/7/3 201/7/3 200/7/3
f 208/5/3 202/5/3 201/5/3
f 208/7/3 201/7/3 207/7/3
f 209/5/3 202/5/3 208/5/3
f 215/2/3 211/2/3 210/2/3
f 216/2/3 211/2/3 215/2/3
f 217/7/3 213/7/3 212/7/3
f 218/5/3 214/5/3 213/5/3
f 218/7/3 213/7/3 217/7/3
f 219/5/3 214/5/3 218/5/3
f 224/1/3 220/1/3 219/1/3
f 225/6/3 221/6/3 220/6/3
f 225/1/3 220/1/3 224/1/3
f 226/1/3 222/1/3 221/1/3
f 226/6/3 221/6/3 225/6/3
f 227/3/3 223/3/3 222/3/3
f 227/1/3 222/1/3 226/1/3
f 228/3/3 223/3/3 227/3/3
f 231/2/3 230/2/3 229/2/3
f 232/2/3 230/2/3 231/2/3
f 235/6/3 234/6/3 233/6/3
f 236/6/3 234/6/3 235/6/3
f 237/2/4 238/2/4 239/2/4
f 239/2/4 238/2/4 240/2/4
f 241/1/4 242/1/4 248/1/4
f 242/6/4 243/6/4 249/6/4
f 248/1/4 242/1/4 249/1/4
f 243/1/4 244/1/4 250/1/4
f 249/6/4 243/6/4 250/6/4
f 244/3/4 245/3/4 251/3/4
f 250/1/4 244/1/4 251/1/4
f 251/3/4 245/3/4 252/3/4
f 246/7/4 247/7/4 253/7/4
f 247/5/4 248/5/4 254/5/4
f 253/7/4 247/7/4 254/7/4
f 254/5/4 248/5/4 255/5/4
f 256/7/4 257/7/4 259/7/4
f 257/5/4 258/5/4 260/5/4
f 259/7/4 257/7/4 260/7/4
f 260/5/4 258/5/4 261/5/4
f 261/1/4 262/1/4 266/1/4
f 262/6/4 263/6/4 267/6/4
f 266/1/4 262/1/4 267/1/4
f 263/1/4 264/1/4 268/1/4
f 267/6/4 263/6/4 268/6/4
f 264/3/4 265/3/4 269/3/4
f 268/1/4 264/1/4 269/1/4
f 269/3/4 265/3/4 270/3/4
f 271/2/4 272/2/4 273/2/4
f 273/2/4 272/2/4 274/2/4
f 275/3/4 276/3/4 279/3/4
f 276/6/4 277/6/4 280/6/4
f 279/3/4 276/3/4 280/3/4
f 277/1/4 278/1/4 281/1/4
f 280/6/4 277/6/4 281/6/4
f 281/1/4 278/1/4 282/1/4
f 282/1/4 278/1/4 283/1/4
f 279/1/4 280/1/4 285/1/4
f 285/1/4 280/1/4 286/1/4
f 281/1/4 282/1/4 287/1/4
f 287/1/4 282/1/4 288/1/4
f 283/2/4 284/2/4 290/2/4
f 290/2/4 284/2/4 291/2/4
f 285/3/4 286/3/4 292/3/4
f 286/6/4 287/6/4 293/6/4
f 292/3/4 286/3/4 293/3/4
f 288/1/4 289/1/4 294/1/4
f 293/6/4 287/6/4 294/6/4
f 287/1/4 288/1/4 294/1/4
f 294/1/4 289/1/4 295/1/4
f 283/2/4 290/2/4 296/2/4
f 296/2/4 290/2/4 297/2/4
f 295/2/4 296/2/4 298/2/4
f 298/2/4 296/2/4 299/2/4
f 300/6/4 301/6/4 306/6/4
f 306/6/4 301/6/4 307/6/4
f 302/2/4 303/2/4 308/2/4
f 308/2/4 303/2/4 309/2/4
f 304/2/4 305/2/4 310/2/4
f 309/2/4 310/2/4 311/2/4
f 310/2/4 305/2/4 312/2/4
f 311/2/4 310/2/4 312/2/4
f 313/6/4 314/6/4 315/6/4
f 315/6/4 314/6/4 316/6/4
f 317/2/4 318/2/4 319/2/4
f 319/2/4 318/2/4 320/2/4
f 325/7/5 322/7/5 321/7/5
f 326/7/5 322/7/5 325/7/5
f 327/7/5 324/7/5 323/7/5
f 328/7/5 324/7/5 327/7/5
f 333/3/5 330/3/5 329/3/5
f 334/3/5 330/3/5 333/3/5
f 335/6/5 331/6/5 330/6/5
f 335/3/5 330/3/5 334/3/5
f 336/6/5 331/6/5 335/6/5
f 338/1/5 333/1/5 332/1/5
f 339/1/5 333/1/5 338/1/5
f 340/6/5 335/6/5 334/6/5
f 341/6/5 335/6/5 340/6/5
f 342/1/5 337/1/5 336/1/5
f 343/1/5 337/1/5 342/1/5
f 344/3/5 340/3/5 339/3/5
f 345/1/5 341/1/5 340/1/5
f 345/3/5 340/3/5 344/3/5
f 346/3/5 342/3/5 341/3/5
f 346/1/5 341/1/5 345/1/5
f 347/3/5 342/3/5 346/3/5
f 351/6/5 349/6/5 348/6/5
f 352/6/5 349/6/5 351/6/5
f 353/6/5 351/6/5 350/6/5
f 354/6/5 351/6/5 353/6/5
f 357/2/5 356/2/5 355/2/5
f 358/2/5 356/2/5 357/2/5
f 361/2/5 360/2/5 359/2/5
f 362/2/5 360/2/5 361/2/5
f 363/2/5 360/2/5 362/2/5
f 365/2/5 364/2/5 363/2/5
f 365/2/5 363/2/5 362/2/5
f 366/2/5 364/2/5 365/2/5
f 368/2/5 365/2/5 362/2/5
f 369/2/5 365/2/5 368/2/5
f 371/2/5 368/2/5 367/2/5
f 372/2/5 368/2/5 371/2/5
f 373/2/5 371/2/5 370/2/5
f 374/2/5 371/2/5 373/2/5
f 377/2/5 376/2/5 375/2/5
f 378/2/5 376/2/5 377/2/5
f 379/3/6 380/3/6 383/3/6
f 383/3/6 380/3/6 384/3/6
f 381/3/6 382/3/6 385/3/6
f 385/3/6 382/3/6 386/3/6
f 387/6/6 388/6/6 390/6/6
f 390/6/6 388/6/6 391/6/6
f 389/6/6 390/6/6 392/6/6
f 392/6/6 390/6/6 393/6/6
f 394/2/6 395/2/6 397/2/6
f 396/2/6 397/2/6 398/2/6
f 397/2/6 395/2/6 399/2/6
f 398/2/6 397/2/6 399/2/6
f 399/2/6 395/2/6 400/2/6
f 401/2/6 402/2/6 403/2/6
f 403/2/6 402/2/6 404/2/6
f 405/2/6 406/2/6 409/2/6
f 409/2/6 406/2/6 410/2/6
f 410/2/6 406/2/6 411/2/6
f 411/2/6 406/2/6 412/2/6
f 407/1/6 408/1/6 415/1/6
f 415/1/6 408/1/6 416/1/6
f 413/2/6 414/2/6 417/2/6
f 417/2/6 414/2/6 418/2/6
f 416/2/6 417/2/6 419/2/6
f 419/2/6 417/2/6 420/2/6
f 421/2/6 422/2/6 423/2/6
f 423/2/6 422/2/6 424/2/6
f 424/2/6 422/2/6 425/2/6
f 425/2/6 422/2/6 426/2/6
f 427/2/6 428/2/6 429/2/6
f 429/2/6 428/2/6 430/2/6
