# MagicaVoxel @ Ephtracy

# material
mtllib SimplePatient.mtl
usemtl palette

# normals
vn -1 0 0
vn 1 0 0
vn 0 0 1
vn 0 0 -1
vn 0 -1 0
vn 0 1 0

# texcoords
vt 0.0332031 0.5
vt 0.255859 0.5
vt 0.447266 0.5
vt 0.865234 0.5
vt 0.923828 0.5
vt 0.958984 0.5
vt 0.966797 0.5
vt 0.990234 0.5

# verts
v -3 3 0.5
v -3 3 -0.5
v -3 4 0.5
v -3 4 -0.5
v -3 5 0.5
v -3 5 -0.5
v -3 6 0.5
v -3 6 -0.5
v -3 7 0.5
v -3 7 -0.5
v -2 0 0.5
v -2 0 -0.5
v -2 1 0.5
v -2 1 -0.5
v -2 3 1.5
v -2 3 0.5
v -2 3 -0.5
v -2 3 -1.5
v -2 4 0.5
v -2 4 -0.5
v -2 5 0.5
v -2 5 -0.5
v -2 6 0.5
v -2 6 -0.5
v -2 6 -1.5
v -2 6 -2.5
v -2 6 -3.5
v -2 7 1.5
v -2 7 0.5
v -2 7 -0.5
v -2 7 -1.5
v -2 7 -2.5
v -2 7 -3.5
v -2 9 1.5
v -2 9 0.5
v -2 10 1.5
v -2 10 0.5
v -2 11 1.5
v -2 11 -1.5
v -1 6 -1.5
v -1 6 -2.5
v -1 7 -1.5
v -1 7 -2.5
v -1 8 -1.5
v -1 8 -2.5
v -1 9 -2.5
v -1 9 -3.5
v -1 10 -2.5
v -1 10 -3.5
v -1 11 1.5
v -1 11 -1.5
v -1 11 -2.5
v -1 12 1.5
v -1 12 0.5
v -1 13 0.5
v -1 13 -1.5
v 0 10 2.5
v 0 10 1.5
v 0 11 2.5
v 0 11 1.5
v 1 0 0.5
v 1 0 -0.5
v 1 1 0.5
v 1 1 -0.5
v 1 3 0.5
v 1 3 -0.5
v 1 9 2.5
v 1 9 1.5
v 1 10 2.5
v 1 10 1.5
v -1 0 0.5
v -1 0 -0.5
v -1 1 0.5
v -1 1 -0.5
v -1 3 0.5
v -1 3 -0.5
v -1 6 -2.5
v -1 6 -3.5
v -1 7 -2.5
v -1 7 -3.5
v 1 6 -1.5
v 1 6 -2.5
v 1 7 -1.5
v 1 7 -2.5
v 1 8 -1.5
v 1 8 -2.5
v 1 9 -1.5
v 1 9 -2.5
v 1 9 -3.5
v 1 10 -2.5
v 1 10 -3.5
v 1 12 0.5
v 1 12 -1.5
v 1 13 0.5
v 1 13 -1.5
v 2 0 0.5
v 2 0 -0.5
v 2 1 0.5
v 2 1 -0.5
v 2 3 1.5
v 2 3 0.5
v 2 3 -0.5
v 2 3 -1.5
v 2 4 1.5
v 2 4 0.5
v 2 4 -0.5
v 2 5 0.5
v 2 5 -0.5
v 2 6 0.5
v 2 6 -0.5
v 2 6 -1.5
v 2 7 1.5
v 2 7 0.5
v 2 7 -0.5
v 2 7 -1.5
v 2 9 1.5
v 2 9 -1.5
v 2 9 -2.5
v 2 11 1.5
v 2 11 -1.5
v 2 11 -2.5
v 2 12 1.5
v 2 12 -1.5
v 3 3 0.5
v 3 3 -0.5
v 3 4 0.5
v 3 4 -0.5
v 3 5 0.5
v 3 5 -0.5
v 3 6 0.5
v 3 6 -0.5
v 3 7 0.5
v 3 7 -0.5
v 3 9 2.5
v 3 9 1.5
v 3 9 -0.5
v 3 9 -1.5
v 3 10 1.5
v 3 10 -0.5
v 3 11 2.5
v 3 11 -1.5
v 4 9 1.5
v 4 9 -0.5
v 4 10 1.5
v 4 10 -0.5
v 0 10 2.5
v 0 11 2.5
v 1 9 2.5
v 1 10 2.5
v 3 9 2.5
v 3 11 2.5
v -2 3 1.5
v -2 7 1.5
v -2 9 1.5
v -2 10 1.5
v -2 11 1.5
v -1 4 1.5
v -1 5 1.5
v -1 9 1.5
v -1 10 1.5
v -1 11 1.5
v -1 12 1.5
v 0 4 1.5
v 0 5 1.5
v 0 6 1.5
v 0 7 1.5
v 0 8 1.5
v 0 10 1.5
v 0 11 1.5
v 1 3 1.5
v 1 4 1.5
v 1 5 1.5
v 1 6 1.5
v 1 7 1.5
v 1 8 1.5
v 1 9 1.5
v 1 10 1.5
v 2 3 1.5
v 2 4 1.5
v 2 7 1.5
v 2 9 1.5
v 2 11 1.5
v 2 12 1.5
v 3 9 1.5
v 3 10 1.5
v 4 9 1.5
v 4 10 1.5
v -3 3 0.5
v -3 4 0.5
v -3 5 0.5
v -3 6 0.5
v -3 7 0.5
v -2 0 0.5
v -2 1 0.5
v -2 3 0.5
v -2 4 0.5
v -2 5 0.5
v -2 6 0.5
v -2 7 0.5
v -1 0 0.5
v -1 1 0.5
v -1 3 0.5
v -1 12 0.5
v -1 13 0.5
v 1 0 0.5
v 1 1 0.5
v 1 3 0.5
v 1 12 0.5
v 1 13 0.5
v 2 0 0.5
v 2 1 0.5
v 2 3 0.5
v 2 4 0.5
v 2 5 0.5
v 2 6 0.5
v 2 7 0.5
v 3 3 0.5
v 3 4 0.5
v 3 5 0.5
v 3 6 0.5
v 3 7 0.5
v -2 6 -2.5
v -2 7 -2.5
v -1 6 -2.5
v -1 7 -2.5
v -3 3 -0.5
v -3 4 -0.5
v -3 5 -0.5
v -3 6 -0.5
v -3 7 -0.5
v -2 0 -0.5
v -2 1 -0.5
v -2 3 -0.5
v -2 4 -0.5
v -2 5 -0.5
v -2 6 -0.5
v -2 7 -0.5
v -1 0 -0.5
v -1 1 -0.5
v -1 3 -0.5
v 1 0 -0.5
v 1 1 -0.5
v 1 3 -0.5
v 2 0 -0.5
v 2 1 -0.5
v 2 3 -0.5
v 2 4 -0.5
v 2 5 -0.5
v 2 6 -0.5
v 2 7 -0.5
v 3 3 -0.5
v 3 4 -0.5
v 3 5 -0.5
v 3 6 -0.5
v 3 7 -0.5
v 3 9 -0.5
v 3 10 -0.5
v 4 9 -0.5
v 4 10 -0.5
v -2 3 -1.5
v -2 6 -1.5
v -2 7 -1.5
v -2 11 -1.5
v -1 3 -1.5
v -1 6 -1.5
v -1 7 -1.5
v -1 8 -1.5
v -1 11 -1.5
v -1 13 -1.5
v 1 3 -1.5
v 1 6 -1.5
v 1 7 -1.5
v 1 8 -1.5
v 1 9 -1.5
v 1 12 -1.5
v 1 13 -1.5
v 2 3 -1.5
v 2 6 -1.5
v 2 7 -1.5
v 2 9 -1.5
v 2 11 -1.5
v 2 12 -1.5
v 3 9 -1.5
v 3 11 -1.5
v -1 6 -2.5
v -1 7 -2.5
v -1 8 -2.5
v -1 9 -2.5
v -1 10 -2.5
v -1 11 -2.5
v 1 6 -2.5
v 1 7 -2.5
v 1 8 -2.5
v 1 9 -2.5
v 1 10 -2.5
v 2 9 -2.5
v 2 11 -2.5
v -2 6 -3.5
v -2 7 -3.5
v -1 6 -3.5
v -1 7 -3.5
v -1 9 -3.5
v -1 10 -3.5
v 1 9 -3.5
v 1 10 -3.5
v -2 0 0.5
v -1 0 0.5
v 1 0 0.5
v 2 0 0.5
v -2 0 -0.5
v -1 0 -0.5
v 1 0 -0.5
v 2 0 -0.5
v -2 3 1.5
v 1 3 1.5
v 2 3 1.5
v -3 3 0.5
v -2 3 0.5
v -1 3 0.5
v 1 3 0.5
v 2 3 0.5
v 3 3 0.5
v -3 3 -0.5
v -2 3 -0.5
v -1 3 -0.5
v 1 3 -0.5
v 2 3 -0.5
v 3 3 -0.5
v -2 3 -1.5
v -1 3 -1.5
v 1 3 -1.5
v 2 3 -1.5
v -1 6 -1.5
v 1 6 -1.5
v -2 6 -2.5
v -1 6 -2.5
v 1 6 -2.5
v -2 6 -3.5
v -1 6 -3.5
v -1 8 -1.5
v 1 8 -1.5
v -1 8 -2.5
v 1 8 -2.5
v 1 9 2.5
v 3 9 2.5
v 1 9 1.5
v 2 9 1.5
v 3 9 1.5
v 4 9 1.5
v 3 9 -0.5
v 4 9 -0.5
v 1 9 -1.5
v 2 9 -1.5
v 3 9 -1.5
v -1 9 -2.5
v 1 9 -2.5
v 2 9 -2.5
v -1 9 -3.5
v 1 9 -3.5
v 0 10 2.5
v 1 10 2.5
v 0 10 1.5
v 1 10 1.5
v -3 7 0.5
v -2 7 0.5
v 2 7 0.5
v 3 7 0.5
v -3 7 -0.5
v -2 7 -0.5
v 2 7 -0.5
v 3 7 -0.5
v -1 7 -1.5
v 1 7 -1.5
v -2 7 -2.5
v -1 7 -2.5
v 1 7 -2.5
v -2 7 -3.5
v -1 7 -3.5
v 3 10 1.5
v 4 10 1.5
v 3 10 -0.5
v 4 10 -0.5
v -1 10 -2.5
v 1 10 -2.5
v -1 10 -3.5
v 1 10 -3.5
v 0 11 2.5
v 3 11 2.5
v -2 11 1.5
v -1 11 1.5
v 0 11 1.5
v 2 11 1.5
v -2 11 -1.5
v -1 11 -1.5
v 2 11 -1.5
v 3 11 -1.5
v -1 11 -2.5
v 2 11 -2.5
v -1 12 1.5
v 2 12 1.5
v -1 12 0.5
v 1 12 0.5
v 1 12 -1.5
v 2 12 -1.5
v -1 13 0.5
v 1 13 0.5
v -1 13 -1.5
v 1 13 -1.5

# faces
f 3/1/1 2/1/1 1/1/1
f 4/1/1 2/1/1 3/1/1
f 5/6/1 4/6/1 3/6/1
f 6/6/1 4/6/1 5/6/1
f 7/1/1 6/1/1 5/1/1
f 8/1/1 6/1/1 7/1/1
f 9/3/1 8/3/1 7/3/1
f 10/3/1 8/3/1 9/3/1
f 13/7/1 12/7/1 11/7/1
f 14/7/1 12/7/1 13/7/1
f 16/5/1 14/5/1 13/5/1
f 17/5/1 14/5/1 16/5/1
f 19/3/1 16/3/1 15/3/1
f 20/3/1 18/3/1 17/3/1
f 21/3/1 19/3/1 15/3/1
f 22/3/1 18/3/1 20/3/1
f 23/3/1 21/3/1 15/3/1
f 24/3/1 18/3/1 22/3/1
f 25/3/1 18/3/1 24/3/1
f 28/3/1 23/3/1 15/3/1
f 29/3/1 23/3/1 28/3/1
f 30/6/1 25/6/1 24/6/1
f 31/6/1 25/6/1 30/6/1
f 32/6/1 27/6/1 26/6/1
f 33/6/1 27/6/1 32/6/1
f 34/1/1 31/1/1 30/1/1
f 34/1/1 29/1/1 28/1/1
f 34/1/1 30/1/1 29/1/1
f 35/1/1 31/1/1 34/1/1
f 36/8/1 35/8/1 34/8/1
f 37/1/1 31/1/1 35/1/1
f 37/8/1 35/8/1 36/8/1
f 38/1/1 37/1/1 36/1/1
f 39/1/1 31/1/1 37/1/1
f 39/1/1 37/1/1 38/1/1
f 42/6/1 41/6/1 40/6/1
f 43/6/1 41/6/1 42/6/1
f 46/2/1 45/2/1 44/2/1
f 48/2/1 46/2/1 44/2/1
f 48/2/1 47/2/1 46/2/1
f 49/2/1 47/2/1 48/2/1
f 51/2/1 48/2/1 44/2/1
f 52/2/1 48/2/1 51/2/1
f 53/2/1 51/2/1 50/2/1
f 54/2/1 51/2/1 53/2/1
f 55/2/1 51/2/1 54/2/1
f 56/2/1 51/2/1 55/2/1
f 59/2/1 58/2/1 57/2/1
f 60/2/1 58/2/1 59/2/1
f 63/7/1 62/7/1 61/7/1
f 64/7/1 62/7/1 63/7/1
f 65/5/1 64/5/1 63/5/1
f 66/5/1 64/5/1 65/5/1
f 69/2/1 68/2/1 67/2/1
f 70/2/1 68/2/1 69/2/1
f 71/7/2 72/7/2 73/7/2
f 73/7/2 72/7/2 74/7/2
f 73/5/2 74/5/2 75/5/2
f 75/5/2 74/5/2 76/5/2
f 77/6/2 78/6/2 79/6/2
f 79/6/2 78/6/2 80/6/2
f 81/6/2 82/6/2 83/6/2
f 83/6/2 82/6/2 84/6/2
f 85/2/2 86/2/2 87/2/2
f 87/2/2 86/2/2 88/2/2
f 88/2/2 89/2/2 90/2/2
f 90/2/2 89/2/2 91/2/2
f 92/2/2 93/2/2 94/2/2
f 94/2/2 93/2/2 95/2/2
f 96/7/2 97/7/2 98/7/2
f 98/7/2 97/7/2 99/7/2
f 98/5/2 99/5/2 101/5/2
f 101/5/2 99/5/2 102/5/2
f 100/6/2 101/6/2 104/6/2
f 104/6/2 101/6/2 105/6/2
f 102/3/2 103/3/2 106/3/2
f 104/3/2 105/3/2 107/3/2
f 106/3/2 103/3/2 108/3/2
f 104/3/2 107/3/2 109/3/2
f 108/3/2 103/3/2 110/3/2
f 110/3/2 103/3/2 111/3/2
f 104/3/2 109/3/2 112/3/2
f 112/3/2 109/3/2 113/3/2
f 110/6/2 111/6/2 114/6/2
f 114/6/2 111/6/2 115/6/2
f 112/1/2 113/1/2 116/1/2
f 113/1/2 114/1/2 116/1/2
f 114/1/2 115/1/2 116/1/2
f 116/1/2 115/1/2 117/1/2
f 117/2/2 118/2/2 120/2/2
f 120/2/2 118/2/2 121/2/2
f 119/2/2 120/2/2 122/2/2
f 122/2/2 120/2/2 123/2/2
f 124/1/2 125/1/2 126/1/2
f 126/1/2 125/1/2 127/1/2
f 126/6/2 127/6/2 128/6/2
f 128/6/2 127/6/2 129/6/2
f 128/1/2 129/1/2 130/1/2
f 130/1/2 129/1/2 131/1/2
f 130/3/2 131/3/2 132/3/2
f 132/3/2 131/3/2 133/3/2
f 134/2/2 135/2/2 138/2/2
f 136/2/2 137/2/2 139/2/2
f 134/2/2 138/2/2 140/2/2
f 138/2/2 139/2/2 140/2/2
f 139/2/2 137/2/2 141/2/2
f 140/2/2 139/2/2 141/2/2
f 142/2/2 143/2/2 144/2/2
f 144/2/2 143/2/2 145/2/2
f 149/2/3 147/2/3 146/2/3
f 150/2/3 149/2/3 148/2/3
f 151/2/3 147/2/3 149/2/3
f 151/2/3 149/2/3 150/2/3
f 157/3/3 153/3/3 152/3/3
f 158/3/3 153/3/3 157/3/3
f 159/1/3 154/1/3 153/1/3
f 159/8/3 155/8/3 154/8/3
f 160/1/3 156/1/3 155/1/3
f 160/8/3 155/8/3 159/8/3
f 161/1/3 156/1/3 160/1/3
f 163/6/3 158/6/3 157/6/3
f 163/3/3 157/3/3 152/3/3
f 164/3/3 153/3/3 158/3/3
f 164/6/3 158/6/3 163/6/3
f 165/3/3 153/3/3 164/3/3
f 166/1/3 159/1/3 153/1/3
f 166/3/3 153/3/3 165/3/3
f 166/1/3 161/1/3 160/1/3
f 166/1/3 160/1/3 159/1/3
f 167/1/3 161/1/3 166/1/3
f 168/1/3 161/1/3 167/1/3
f 169/2/3 162/2/3 161/2/3
f 169/1/3 161/1/3 168/1/3
f 170/3/3 163/3/3 152/3/3
f 170/3/3 164/3/3 163/3/3
f 171/3/3 164/3/3 170/3/3
f 172/6/3 165/6/3 164/6/3
f 172/3/3 164/3/3 171/3/3
f 173/3/3 166/3/3 165/3/3
f 173/6/3 165/6/3 172/6/3
f 174/4/3 167/4/3 166/4/3
f 174/3/3 166/3/3 173/3/3
f 175/1/3 168/1/3 167/1/3
f 175/4/3 167/4/3 174/4/3
f 176/1/3 168/1/3 175/1/3
f 177/1/3 168/1/3 176/1/3
f 178/6/3 171/6/3 170/6/3
f 179/3/3 174/3/3 173/3/3
f 179/6/3 171/6/3 178/6/3
f 179/3/3 173/3/3 172/3/3
f 179/3/3 172/3/3 171/3/3
f 180/1/3 176/1/3 175/1/3
f 180/3/3 174/3/3 179/3/3
f 180/1/3 175/1/3 174/1/3
f 181/1/3 176/1/3 180/1/3
f 182/2/3 162/2/3 169/2/3
f 183/2/3 162/2/3 182/2/3
f 186/2/3 185/2/3 184/2/3
f 187/2/3 185/2/3 186/2/3
f 195/1/3 189/1/3 188/1/3
f 196/6/3 190/6/3 189/6/3
f 196/1/3 189/1/3 195/1/3
f 197/1/3 191/1/3 190/1/3
f 197/6/3 190/6/3 196/6/3
f 198/3/3 192/3/3 191/3/3
f 198/1/3 191/1/3 197/1/3
f 199/3/3 192/3/3 198/3/3
f 200/7/3 194/7/3 193/7/3
f 201/5/3 195/5/3 194/5/3
f 201/7/3 194/7/3 200/7/3
f 202/5/3 195/5/3 201/5/3
f 208/2/3 204/2/3 203/2/3
f 209/2/3 204/2/3 208/2/3
f 210/7/3 206/7/3 205/7/3
f 211/5/3 207/5/3 206/5/3
f 211/7/3 206/7/3 210/7/3
f 212/5/3 207/5/3 211/5/3
f 217/1/3 213/1/3 212/1/3
f 218/6/3 214/6/3 213/6/3
f 218/1/3 213/1/3 217/1/3
f 219/1/3 215/1/3 214/1/3
f 219/6/3 214/6/3 218/6/3
f 220/3/3 216/3/3 215/3/3
f 220/1/3 215/1/3 219/1/3
f 221/3/3 216/3/3 220/3/3
f 224/6/3 223/6/3 222/6/3
f 225/6/3 223/6/3 224/6/3
f 226/1/4 227/1/4 233/1/4
f 227/6/4 228/6/4 234/6/4
f 233/1/4 227/1/4 234/1/4
f 228/1/4 229/1/4 235/1/4
f 234/6/4 228/6/4 235/6/4
f 229/3/4 230/3/4 236/3/4
f 235/1/4 229/1/4 236/1/4
f 236/3/4 230/3/4 237/3/4
f 231/7/4 232/7/4 238/7/4
f 232/5/4 233/5/4 239/5/4
f 238/7/4 232/7/4 239/7/4
f 239/5/4 233/5/4 240/5/4
f 241/7/4 242/7/4 244/7/4
f 242/5/4 243/5/4 245/5/4
f 244/7/4 242/7/4 245/7/4
f 245/5/4 243/5/4 246/5/4
f 246/1/4 247/1/4 251/1/4
f 247/6/4 248/6/4 252/6/4
f 251/1/4 247/1/4 252/1/4
f 248/1/4 249/1/4 253/1/4
f 252/6/4 248/6/4 253/6/4
f 249/3/4 250/3/4 254/3/4
f 253/1/4 249/1/4 254/1/4
f 254/3/4 250/3/4 255/3/4
f 256/2/4 257/2/4 258/2/4
f 258/2/4 257/2/4 259/2/4
f 260/3/4 261/3/4 264/3/4
f 261/6/4 262/6/4 265/6/4
f 264/3/4 261/3/4 265/3/4
f 262/1/4 263/1/4 266/1/4
f 265/6/4 262/6/4 266/6/4
f 266/1/4 263/1/4 267/1/4
f 267/1/4 263/1/4 268/1/4
f 264/1/4 265/1/4 270/1/4
f 270/1/4 265/1/4 271/1/4
f 266/1/4 267/1/4 272/1/4
f 272/1/4 267/1/4 273/1/4
f 268/2/4 269/2/4 275/2/4
f 275/2/4 269/2/4 276/2/4
f 270/3/4 271/3/4 277/3/4
f 271/6/4 272/6/4 278/6/4
f 277/3/4 271/3/4 278/3/4
f 273/1/4 274/1/4 279/1/4
f 278/6/4 272/6/4 279/6/4
f 272/1/4 273/1/4 279/1/4
f 279/1/4 274/1/4 280/1/4
f 268/2/4 275/2/4 281/2/4
f 281/2/4 275/2/4 282/2/4
f 280/2/4 281/2/4 283/2/4
f 283/2/4 281/2/4 284/2/4
f 285/6/4 286/6/4 291/6/4
f 291/6/4 286/6/4 292/6/4
f 287/2/4 288/2/4 293/2/4
f 293/2/4 288/2/4 294/2/4
f 289/2/4 290/2/4 295/2/4
f 294/2/4 295/2/4 296/2/4
f 295/2/4 290/2/4 297/2/4
f 296/2/4 295/2/4 297/2/4
f 298/6/4 299/6/4 300/6/4
f 300/6/4 299/6/4 301/6/4
f 302/2/4 303/2/4 304/2/4
f 304/2/4 303/2/4 305/2/4
f 310/7/5 307/7/5 306/7/5
f 311/7/5 307/7/5 310/7/5
f 312/7/5 309/7/5 308/7/5
f 313/7/5 309/7/5 312/7/5
f 318/3/5 315/3/5 314/3/5
f 319/3/5 315/3/5 318/3/5
f 320/6/5 316/6/5 315/6/5
f 320/3/5 315/3/5 319/3/5
f 321/6/5 316/6/5 320/6/5
f 323/1/5 318/1/5 317/1/5
f 324/1/5 318/1/5 323/1/5
f 325/6/5 320/6/5 319/6/5
f 326/6/5 320/6/5 325/6/5
f 327/1/5 322/1/5 321/1/5
f 328/1/5 322/1/5 327/1/5
f 329/3/5 325/3/5 324/3/5
f 330/1/5 326/1/5 325/1/5
f 330/3/5 325/3/5 329/3/5
f 331/3/5 327/3/5 326/3/5
f 331/1/5 326/1/5 330/1/5
f 332/3/5 327/3/5 331/3/5
f 336/6/5 334/6/5 333/6/5
f 337/6/5 334/6/5 336/6/5
f 338/6/5 336/6/5 335/6/5
f 339/6/5 336/6/5 338/6/5
f 342/2/5 341/2/5 340/2/5
f 343/2/5 341/2/5 342/2/5
f 346/2/5 345/2/5 344/2/5
f 347/2/5 345/2/5 346/2/5
f 348/2/5 345/2/5 347/2/5
f 350/2/5 349/2/5 348/2/5
f 350/2/5 348/2/5 347/2/5
f 351/2/5 349/2/5 350/2/5
f 353/2/5 350/2/5 347/2/5
f 354/2/5 350/2/5 353/2/5
f 356/2/5 353/2/5 352/2/5
f 357/2/5 353/2/5 356/2/5
f 358/2/5 356/2/5 355/2/5
f 359/2/5 356/2/5 358/2/5
f 362/2/5 361/2/5 360/2/5
f 363/2/5 361/2/5 362/2/5
f 364/3/6 365/3/6 368/3/6
f 368/3/6 365/3/6 369/3/6
f 366/3/6 367/3/6 370/3/6
f 370/3/6 367/3/6 371/3/6
f 372/6/6 373/6/6 375/6/6
f 375/6/6 373/6/6 376/6/6
f 374/6/6 375/6/6 377/6/6
f 377/6/6 375/6/6 378/6/6
f 379/2/6 380/2/6 381/2/6
f 381/2/6 380/2/6 382/2/6
f 383/2/6 384/2/6 385/2/6
f 385/2/6 384/2/6 386/2/6
f 387/2/6 388/2/6 391/2/6
f 391/2/6 388/2/6 392/2/6
f 389/1/6 390/1/6 393/1/6
f 393/1/6 390/1/6 394/1/6
f 392/2/6 388/2/6 395/2/6
f 395/2/6 388/2/6 396/2/6
f 394/2/6 395/2/6 397/2/6
f 397/2/6 395/2/6 398/2/6
f 399/2/6 400/2/6 401/2/6
f 401/2/6 400/2/6 402/2/6
f 402/2/6 400/2/6 403/2/6
f 403/2/6 400/2/6 404/2/6
f 405/2/6 406/2/6 407/2/6
f 407/2/6 406/2/6 408/2/6
