# MagicaVoxel @ Ephtracy

# material
mtllib SimpleNurseMale.mtl
usemtl palette

# normals
vn -1 0 0
vn 1 0 0
vn 0 0 1
vn 0 0 -1
vn 0 -1 0
vn 0 1 0

# texcoords
vt 0.0332031 0.5
vt 0.373047 0.5
vt 0.587891 0.5
vt 0.923828 0.5
vt 0.958984 0.5
vt 0.990234 0.5

# verts
v -3 3 0.5
v -3 3 -0.5
v -3 6 0.5
v -3 6 -0.5
v -3 7 0.5
v -3 7 -0.5
v -2 0 0.5
v -2 0 -0.5
v -2 1 0.5
v -2 1 -0.5
v -2 3 1.5
v -2 3 0.5
v -2 3 -0.5
v -2 3 -1.5
v -2 6 0.5
v -2 6 -0.5
v -2 7 1.5
v -2 7 0.5
v -2 7 -0.5
v -2 7 -1.5
v -2 9 1.5
v -2 9 0.5
v -2 9 -0.5
v -2 9 -1.5
v -2 10 1.5
v -2 10 0.5
v -2 10 -0.5
v -2 11 1.5
v -2 11 0.5
v -2 12 1.5
v -2 12 -1.5
v 1 0 0.5
v 1 0 -0.5
v 1 1 0.5
v 1 1 -0.5
v 1 3 0.5
v 1 3 -0.5
v -1 0 0.5
v -1 0 -0.5
v -1 1 0.5
v -1 1 -0.5
v -1 3 0.5
v -1 3 -0.5
v 2 0 0.5
v 2 0 -0.5
v 2 1 0.5
v 2 1 -0.5
v 2 3 1.5
v 2 3 0.5
v 2 3 -0.5
v 2 3 -1.5
v 2 6 0.5
v 2 6 -0.5
v 2 7 1.5
v 2 7 0.5
v 2 7 -0.5
v 2 7 -1.5
v 2 9 1.5
v 2 9 0.5
v 2 9 -0.5
v 2 9 -1.5
v 2 10 1.5
v 2 10 0.5
v 2 10 -0.5
v 2 11 1.5
v 2 11 0.5
v 2 12 1.5
v 2 12 -1.5
v 3 3 0.5
v 3 3 -0.5
v 3 6 0.5
v 3 6 -0.5
v 3 7 0.5
v 3 7 -0.5
v -2 3 1.5
v -2 7 1.5
v -2 9 1.5
v -2 10 1.5
v -2 11 1.5
v -2 12 1.5
v -1 9 1.5
v -1 10 1.5
v 0 10 1.5
v 0 11 1.5
v 1 9 1.5
v 1 10 1.5
v 1 11 1.5
v 2 3 1.5
v 2 7 1.5
v 2 9 1.5
v 2 10 1.5
v 2 11 1.5
v 2 12 1.5
v -3 3 0.5
v -3 6 0.5
v -3 7 0.5
v -2 0 0.5
v -2 1 0.5
v -2 3 0.5
v -2 6 0.5
v -2 7 0.5
v -1 0 0.5
v -1 1 0.5
v -1 3 0.5
v 1 0 0.5
v 1 1 0.5
v 1 3 0.5
v 2 0 0.5
v 2 1 0.5
v 2 3 0.5
v 2 6 0.5
v 2 7 0.5
v 3 3 0.5
v 3 6 0.5
v 3 7 0.5
v -3 3 -0.5
v -3 6 -0.5
v -3 7 -0.5
v -2 0 -0.5
v -2 1 -0.5
v -2 3 -0.5
v -2 6 -0.5
v -2 7 -0.5
v -1 0 -0.5
v -1 1 -0.5
v -1 3 -0.5
v 1 0 -0.5
v 1 1 -0.5
v 1 3 -0.5
v 2 0 -0.5
v 2 1 -0.5
v 2 3 -0.5
v 2 6 -0.5
v 2 7 -0.5
v 3 3 -0.5
v 3 6 -0.5
v 3 7 -0.5
v -2 3 -1.5
v -2 7 -1.5
v -2 9 -1.5
v -2 12 -1.5
v -1 8 -1.5
v -1 9 -1.5
v 1 8 -1.5
v 1 9 -1.5
v 2 3 -1.5
v 2 7 -1.5
v 2 9 -1.5
v 2 12 -1.5
v -2 0 0.5
v -1 0 0.5
v 1 0 0.5
v 2 0 0.5
v -2 0 -0.5
v -1 0 -0.5
v 1 0 -0.5
v 2 0 -0.5
v -2 3 1.5
v 2 3 1.5
v -3 3 0.5
v -2 3 0.5
v -1 3 0.5
v 1 3 0.5
v 2 3 0.5
v 3 3 0.5
v -3 3 -0.5
v -2 3 -0.5
v -1 3 -0.5
v 1 3 -0.5
v 2 3 -0.5
v 3 3 -0.5
v -2 3 -1.5
v 2 3 -1.5
v -3 7 0.5
v -2 7 0.5
v 2 7 0.5
v 3 7 0.5
v -3 7 -0.5
v -2 7 -0.5
v 2 7 -0.5
v 3 7 -0.5
v -2 12 1.5
v 2 12 1.5
v -2 12 -1.5
v 2 12 -1.5

# faces
f 3/1/1 2/1/1 1/1/1
f 4/1/1 2/1/1 3/1/1
f 5/3/1 4/3/1 3/3/1
f 6/3/1 4/3/1 5/3/1
f 9/6/1 8/6/1 7/6/1
f 10/6/1 8/6/1 9/6/1
f 12/4/1 10/4/1 9/4/1
f 13/4/1 10/4/1 12/4/1
f 15/3/1 12/3/1 11/3/1
f 16/3/1 14/3/1 13/3/1
f 17/3/1 15/3/1 11/3/1
f 18/3/1 15/3/1 17/3/1
f 19/3/1 14/3/1 16/3/1
f 20/3/1 14/3/1 19/3/1
f 21/1/1 18/1/1 17/1/1
f 21/1/1 19/1/1 18/1/1
f 21/1/1 20/1/1 19/1/1
f 22/1/1 20/1/1 21/1/1
f 23/1/1 20/1/1 22/1/1
f 24/1/1 20/1/1 23/1/1
f 25/6/1 22/6/1 21/6/1
f 26/1/1 23/1/1 22/1/1
f 26/6/1 22/6/1 25/6/1
f 27/2/1 24/2/1 23/2/1
f 27/1/1 23/1/1 26/1/1
f 28/1/1 26/1/1 25/1/1
f 29/2/1 27/2/1 26/2/1
f 29/1/1 26/1/1 28/1/1
f 30/2/1 29/2/1 28/2/1
f 31/2/1 24/2/1 27/2/1
f 31/2/1 29/2/1 30/2/1
f 31/2/1 27/2/1 29/2/1
f 34/6/1 33/6/1 32/6/1
f 35/6/1 33/6/1 34/6/1
f 36/4/1 35/4/1 34/4/1
f 37/4/1 35/4/1 36/4/1
f 38/6/2 39/6/2 40/6/2
f 40/6/2 39/6/2 41/6/2
f 40/4/2 41/4/2 42/4/2
f 42/4/2 41/4/2 43/4/2
f 44/6/2 45/6/2 46/6/2
f 46/6/2 45/6/2 47/6/2
f 46/4/2 47/4/2 49/4/2
f 49/4/2 47/4/2 50/4/2
f 48/3/2 49/3/2 52/3/2
f 50/3/2 51/3/2 53/3/2
f 48/3/2 52/3/2 54/3/2
f 54/3/2 52/3/2 55/3/2
f 53/3/2 51/3/2 56/3/2
f 56/3/2 51/3/2 57/3/2
f 54/1/2 55/1/2 58/1/2
f 55/1/2 56/1/2 58/1/2
f 56/1/2 57/1/2 58/1/2
f 58/1/2 57/1/2 59/1/2
f 59/1/2 57/1/2 60/1/2
f 60/1/2 57/1/2 61/1/2
f 58/6/2 59/6/2 62/6/2
f 59/1/2 60/1/2 63/1/2
f 62/6/2 59/6/2 63/6/2
f 60/2/2 61/2/2 64/2/2
f 63/1/2 60/1/2 64/1/2
f 62/1/2 63/1/2 65/1/2
f 63/2/2 64/2/2 66/2/2
f 65/1/2 63/1/2 66/1/2
f 65/2/2 66/2/2 67/2/2
f 64/2/2 61/2/2 68/2/2
f 67/2/2 66/2/2 68/2/2
f 66/2/2 64/2/2 68/2/2
f 69/1/2 70/1/2 71/1/2
f 71/1/2 70/1/2 72/1/2
f 71/3/2 72/3/2 73/3/2
f 73/3/2 72/3/2 74/3/2
f 81/1/3 77/1/3 76/1/3
f 81/6/3 78/6/3 77/6/3
f 82/1/3 79/1/3 78/1/3
f 82/6/3 78/6/3 81/6/3
f 83/1/3 82/1/3 81/1/3
f 83/1/3 79/1/3 82/1/3
f 84/2/3 80/2/3 79/2/3
f 84/1/3 79/1/3 83/1/3
f 85/1/3 83/1/3 81/1/3
f 85/1/3 81/1/3 76/1/3
f 86/2/3 84/2/3 83/2/3
f 86/1/3 83/1/3 85/1/3
f 87/2/3 80/2/3 84/2/3
f 87/2/3 84/2/3 86/2/3
f 88/3/3 76/3/3 75/3/3
f 89/1/3 85/1/3 76/1/3
f 89/3/3 76/3/3 88/3/3
f 90/6/3 86/6/3 85/6/3
f 90/1/3 85/1/3 89/1/3
f 91/1/3 87/1/3 86/1/3
f 91/6/3 86/6/3 90/6/3
f 92/2/3 80/2/3 87/2/3
f 92/1/3 87/1/3 91/1/3
f 93/2/3 80/2/3 92/2/3
f 99/1/3 95/1/3 94/1/3
f 100/3/3 96/3/3 95/3/3
f 100/1/3 95/1/3 99/1/3
f 101/3/3 96/3/3 100/3/3
f 102/6/3 98/6/3 97/6/3
f 103/4/3 99/4/3 98/4/3
f 103/6/3 98/6/3 102/6/3
f 104/4/3 99/4/3 103/4/3
f 108/6/3 106/6/3 105/6/3
f 109/4/3 107/4/3 106/4/3
f 109/6/3 106/6/3 108/6/3
f 110/4/3 107/4/3 109/4/3
f 113/1/3 111/1/3 110/1/3
f 114/3/3 112/3/3 111/3/3
f 114/1/3 111/1/3 113/1/3
f 115/3/3 112/3/3 114/3/3
f 116/1/4 117/1/4 121/1/4
f 117/3/4 118/3/4 122/3/4
f 121/1/4 117/1/4 122/1/4
f 122/3/4 118/3/4 123/3/4
f 119/6/4 120/6/4 124/6/4
f 120/4/4 121/4/4 125/4/4
f 124/6/4 120/6/4 125/6/4
f 125/4/4 121/4/4 126/4/4
f 127/6/4 128/6/4 130/6/4
f 128/4/4 129/4/4 131/4/4
f 130/6/4 128/6/4 131/6/4
f 131/4/4 129/4/4 132/4/4
f 132/1/4 133/1/4 135/1/4
f 133/3/4 134/3/4 136/3/4
f 135/1/4 133/1/4 136/1/4
f 136/3/4 134/3/4 137/3/4
f 139/1/4 140/1/4 142/1/4
f 140/2/4 141/2/4 143/2/4
f 142/1/4 140/1/4 143/1/4
f 139/1/4 142/1/4 144/1/4
f 142/2/4 143/2/4 144/2/4
f 143/2/4 141/2/4 145/2/4
f 144/2/4 143/2/4 145/2/4
f 138/3/4 139/3/4 146/3/4
f 139/1/4 144/1/4 147/1/4
f 146/3/4 139/3/4 147/3/4
f 144/1/4 145/1/4 147/1/4
f 145/2/4 141/2/4 148/2/4
f 147/1/4 145/1/4 148/1/4
f 148/2/4 141/2/4 149/2/4
f 154/6/5 151/6/5 150/6/5
f 155/6/5 151/6/5 154/6/5
f 156/6/5 153/6/5 152/6/5
f 157/6/5 153/6/5 156/6/5
f 161/3/5 159/3/5 158/3/5
f 162/3/5 159/3/5 161/3/5
f 163/3/5 159/3/5 162/3/5
f 164/3/5 159/3/5 163/3/5
f 166/1/5 161/1/5 160/1/5
f 167/1/5 161/1/5 166/1/5
f 168/3/5 163/3/5 162/3/5
f 169/3/5 163/3/5 168/3/5
f 170/1/5 165/1/5 164/1/5
f 171/1/5 165/1/5 170/1/5
f 172/3/5 169/3/5 168/3/5
f 172/3/5 170/3/5 169/3/5
f 172/3/5 168/3/5 167/3/5
f 173/3/5 170/3/5 172/3/5
f 174/3/6 175/3/6 178/3/6
f 178/3/6 175/3/6 179/3/6
f 176/3/6 177/3/6 180/3/6
f 180/3/6 177/3/6 181/3/6
f 182/2/6 183/2/6 184/2/6
f 184/2/6 183/2/6 185/2/6
