# MagicaVoxel @ Ephtracy

# material
mtllib SimpleDesk.mtl
usemtl palette

# normals
vn -1 0 0
vn 1 0 0
vn 0 0 1
vn 0 0 -1
vn 0 -1 0
vn 0 1 0

# texcoords
vt 0.306641 0.5
vt 0.978516 0.5

# verts
v -10 4 5.5
v -10 4 -5.5
v -10 5 5.5
v -10 5 -5.5
v -9 0 4.5
v -9 0 -4.5
v -9 4 4.5
v -9 4 -4.5
v -1 0 3.5
v -1 0 -3.5
v -1 4 3.5
v -1 4 -3.5
v 8 0 4.5
v 8 0 -4.5
v 8 4 4.5
v 8 4 -4.5
v -8 0 3.5
v -8 0 -3.5
v -8 4 3.5
v -8 4 -3.5
v 0 0 4.5
v 0 0 -4.5
v 0 4 4.5
v 0 4 -4.5
v 9 0 4.5
v 9 0 -4.5
v 9 4 4.5
v 9 4 -4.5
v 10 4 5.5
v 10 4 -5.5
v 10 5 5.5
v 10 5 -5.5
v -10 4 5.5
v -10 5 5.5
v 10 4 5.5
v 10 5 5.5
v -9 0 4.5
v -9 4 4.5
v 0 0 4.5
v 0 4 4.5
v 8 0 4.5
v 8 4 4.5
v 9 0 4.5
v 9 4 4.5
v -8 0 -3.5
v -8 4 -3.5
v -1 0 -3.5
v -1 4 -3.5
v -8 0 3.5
v -8 4 3.5
v -1 0 3.5
v -1 4 3.5
v -9 0 -4.5
v -9 4 -4.5
v 0 0 -4.5
v 0 4 -4.5
v 8 0 -4.5
v 8 4 -4.5
v 9 0 -4.5
v 9 4 -4.5
v -10 4 -5.5
v -10 5 -5.5
v 10 4 -5.5
v 10 5 -5.5
v -9 0 4.5
v 0 0 4.5
v 8 0 4.5
v 9 0 4.5
v -8 0 3.5
v -1 0 3.5
v -8 0 -3.5
v -1 0 -3.5
v -9 0 -4.5
v 0 0 -4.5
v 8 0 -4.5
v 9 0 -4.5
v -10 4 5.5
v 10 4 5.5
v -9 4 4.5
v 0 4 4.5
v 8 4 4.5
v 9 4 4.5
v -8 4 3.5
v -1 4 3.5
v -8 4 -3.5
v -1 4 -3.5
v -9 4 -4.5
v 0 4 -4.5
v 8 4 -4.5
v 9 4 -4.5
v -10 4 -5.5
v 10 4 -5.5
v -10 5 5.5
v 10 5 5.5
v -10 5 -5.5
v 10 5 -5.5

# faces
f 3/1/1 2/1/1 1/1/1
f 4/1/1 2/1/1 3/1/1
f 7/2/1 6/2/1 5/2/1
f 8/2/1 6/2/1 7/2/1
f 11/2/1 10/2/1 9/2/1
f 12/2/1 10/2/1 11/2/1
f 15/2/1 14/2/1 13/2/1
f 16/2/1 14/2/1 15/2/1
f 17/2/2 18/2/2 19/2/2
f 19/2/2 18/2/2 20/2/2
f 21/2/2 22/2/2 23/2/2
f 23/2/2 22/2/2 24/2/2
f 25/2/2 26/2/2 27/2/2
f 27/2/2 26/2/2 28/2/2
f 29/1/2 30/1/2 31/1/2
f 31/1/2 30/1/2 32/1/2
f 35/1/3 34/1/3 33/1/3
f 36/1/3 34/1/3 35/1/3
f 39/2/3 38/2/3 37/2/3
f 40/2/3 38/2/3 39/2/3
f 43/2/3 42/2/3 41/2/3
f 44/2/3 42/2/3 43/2/3
f 47/2/3 46/2/3 45/2/3
f 48/2/3 46/2/3 47/2/3
f 49/2/4 50/2/4 51/2/4
f 51/2/4 50/2/4 52/2/4
f 53/2/4 54/2/4 55/2/4
f 55/2/4 54/2/4 56/2/4
f 57/2/4 58/2/4 59/2/4
f 59/2/4 58/2/4 60/2/4
f 61/1/4 62/1/4 63/1/4
f 63/1/4 62/1/4 64/1/4
f 69/2/5 66/2/5 65/2/5
f 70/2/5 66/2/5 69/2/5
f 71/2/5 69/2/5 65/2/5
f 72/2/5 66/2/5 70/2/5
f 73/2/5 71/2/5 65/2/5
f 73/2/5 72/2/5 71/2/5
f 74/2/5 66/2/5 72/2/5
f 74/2/5 72/2/5 73/2/5
f 75/2/5 68/2/5 67/2/5
f 76/2/5 68/2/5 75/2/5
f 79/1/5 78/1/5 77/1/5
f 80/1/5 78/1/5 79/1/5
f 81/1/5 78/1/5 80/1/5
f 82/1/5 78/1/5 81/1/5
f 85/1/5 84/1/5 83/1/5
f 86/1/5 84/1/5 85/1/5
f 87/1/5 79/1/5 77/1/5
f 88/1/5 81/1/5 80/1/5
f 89/1/5 81/1/5 88/1/5
f 90/1/5 78/1/5 82/1/5
f 91/1/5 87/1/5 77/1/5
f 91/1/5 90/1/5 89/1/5
f 91/1/5 89/1/5 88/1/5
f 91/1/5 88/1/5 87/1/5
f 92/1/5 78/1/5 90/1/5
f 92/1/5 90/1/5 91/1/5
f 93/1/6 94/1/6 95/1/6
f 95/1/6 94/1/6 96/1/6
