# MagicaVoxel @ Ephtracy

# material
mtllib SimpleIVMachine.mtl
usemtl palette

# normals
vn -1 0 0
vn 1 0 0
vn 0 0 1
vn 0 0 -1
vn 0 -1 0
vn 0 1 0

# texcoords
vt 0.587891 0.5
vt 0.755859 0.5
vt 0.798828 0.5
vt 0.841797 0.5
vt 0.884766 0.5
vt 0.958984 0.5
vt 0.966797 0.5
vt 0.994141 0.5

# verts
v -5 0 5.5
v -5 0 4.5
v -5 0 -3.5
v -5 0 -4.5
v -5 1 5.5
v -5 1 4.5
v -5 1 -3.5
v -5 1 -4.5
v -4 2 4.5
v -4 2 3.5
v -4 2 -2.5
v -4 2 -3.5
v -4 3 4.5
v -4 3 3.5
v -4 3 -2.5
v -4 3 -3.5
v -3 2 3.5
v -3 2 2.5
v -3 2 -1.5
v -3 2 -2.5
v -3 3 3.5
v -3 3 2.5
v -3 3 -1.5
v -3 3 -2.5
v -3 15 0.5
v -3 15 -1.5
v -3 19 0.5
v -3 19 -0.5
v -3 19 -1.5
v -3 20 0.5
v -3 20 -0.5
v -2 2 2.5
v -2 2 1.5
v -2 2 -0.5
v -2 2 -1.5
v -2 3 2.5
v -2 3 1.5
v -2 3 -0.5
v -2 3 -1.5
v -2 19 1.5
v -2 19 0.5
v -2 20 1.5
v -2 20 0.5
v -1 2 1.5
v -1 2 -0.5
v -1 3 1.5
v -1 3 0.5
v -1 3 -0.5
v -1 12 1.5
v -1 12 0.5
v -1 12 -1.5
v -1 13 -0.5
v -1 13 -1.5
v -1 16 -0.5
v -1 16 -1.5
v -1 17 1.5
v -1 17 0.5
v -1 17 -1.5
v -1 19 2.5
v -1 19 1.5
v -1 19 0.5
v -1 20 2.5
v -1 20 1.5
v 0 15 3.5
v 0 15 2.5
v 0 19 3.5
v 0 19 2.5
v 0 20 3.5
v 0 20 2.5
v 1 2 2.5
v 1 2 1.5
v 1 2 -0.5
v 1 2 -1.5
v 1 3 2.5
v 1 3 1.5
v 1 3 -0.5
v 1 3 -1.5
v 2 2 3.5
v 2 2 2.5
v 2 2 -1.5
v 2 2 -2.5
v 2 3 3.5
v 2 3 2.5
v 2 3 -1.5
v 2 3 -2.5
v 3 2 4.5
v 3 2 3.5
v 3 2 -2.5
v 3 2 -3.5
v 3 3 4.5
v 3 3 3.5
v 3 3 -2.5
v 3 3 -3.5
v 4 0 5.5
v 4 0 4.5
v 4 0 -3.5
v 4 0 -4.5
v 4 1 5.5
v 4 1 4.5
v 4 1 -3.5
v 4 1 -4.5
v -4 0 5.5
v -4 0 4.5
v -4 0 -3.5
v -4 0 -4.5
v -4 1 5.5
v -4 1 4.5
v -4 1 -3.5
v -4 1 -4.5
v -3 2 4.5
v -3 2 3.5
v -3 2 -2.5
v -3 2 -3.5
v -3 3 4.5
v -3 3 3.5
v -3 3 -2.5
v -3 3 -3.5
v -2 2 3.5
v -2 2 2.5
v -2 2 -1.5
v -2 2 -2.5
v -2 3 3.5
v -2 3 2.5
v -2 3 -1.5
v -2 3 -2.5
v -2 15 0.5
v -2 15 -1.5
v -2 19 0.5
v -2 19 -0.5
v -2 19 -1.5
v -1 2 2.5
v -1 2 1.5
v -1 2 -0.5
v -1 2 -1.5
v -1 3 2.5
v -1 3 1.5
v -1 3 -0.5
v -1 3 -1.5
v -1 19 0.5
v -1 19 -0.5
v -1 20 0.5
v -1 20 -0.5
v 0 3 1.5
v 0 3 0.5
v 0 12 1.5
v 0 12 0.5
v 0 12 -0.5
v 0 12 -1.5
v 0 13 -0.5
v 0 13 -1.5
v 0 14 -0.5
v 0 15 -0.5
v 0 16 -0.5
v 0 16 -1.5
v 0 17 1.5
v 0 17 0.5
v 0 17 -0.5
v 0 17 -1.5
v 0 19 1.5
v 0 20 1.5
v 0 20 0.5
v 1 2 1.5
v 1 2 -0.5
v 1 3 1.5
v 1 3 -0.5
v 1 12 0.5
v 1 12 -0.5
v 1 13 0.5
v 1 13 -0.5
v 1 14 0.5
v 1 14 -0.5
v 1 15 0.5
v 1 15 -0.5
v 1 16 0.5
v 1 16 -0.5
v 1 17 0.5
v 1 17 -0.5
v 1 19 3.5
v 1 19 2.5
v 1 19 1.5
v 1 20 3.5
v 1 20 1.5
v 2 2 2.5
v 2 2 1.5
v 2 2 -0.5
v 2 2 -1.5
v 2 3 2.5
v 2 3 1.5
v 2 3 -0.5
v 2 3 -1.5
v 2 12 1.5
v 2 12 0.5
v 2 13 1.5
v 2 13 0.5
v 2 15 3.5
v 2 15 2.5
v 2 16 1.5
v 2 16 0.5
v 2 17 1.5
v 2 17 0.5
v 2 19 3.5
v 2 19 2.5
v 3 2 3.5
v 3 2 2.5
v 3 2 -1.5
v 3 2 -2.5
v 3 3 3.5
v 3 3 2.5
v 3 3 -1.5
v 3 3 -2.5
v 4 2 4.5
v 4 2 3.5
v 4 2 -2.5
v 4 2 -3.5
v 4 3 4.5
v 4 3 3.5
v 4 3 -2.5
v 4 3 -3.5
v 5 0 5.5
v 5 0 4.5
v 5 0 -3.5
v 5 0 -4.5
v 5 1 5.5
v 5 1 4.5
v 5 1 -3.5
v 5 1 -4.5
v -5 0 5.5
v -5 1 5.5
v -4 0 5.5
v -4 1 5.5
v 4 0 5.5
v 4 1 5.5
v 5 0 5.5
v 5 1 5.5
v -4 2 4.5
v -4 3 4.5
v -3 2 4.5
v -3 3 4.5
v 3 2 4.5
v 3 3 4.5
v 4 2 4.5
v 4 3 4.5
v -3 2 3.5
v -3 3 3.5
v -2 2 3.5
v -2 3 3.5
v 0 15 3.5
v 0 19 3.5
v 0 20 3.5
v 1 19 3.5
v 1 20 3.5
v 2 2 3.5
v 2 3 3.5
v 2 15 3.5
v 2 19 3.5
v 3 2 3.5
v 3 3 3.5
v -2 2 2.5
v -2 3 2.5
v -1 2 2.5
v -1 3 2.5
v -1 19 2.5
v -1 20 2.5
v 0 19 2.5
v 0 20 2.5
v 1 2 2.5
v 1 3 2.5
v 2 2 2.5
v 2 3 2.5
v -2 19 1.5
v -2 20 1.5
v -1 2 1.5
v -1 3 1.5
v -1 12 1.5
v -1 17 1.5
v -1 19 1.5
v -1 20 1.5
v 0 3 1.5
v 0 12 1.5
v 0 17 1.5
v 0 19 1.5
v 1 2 1.5
v 1 3 1.5
v 1 13 1.5
v 1 16 1.5
v 2 12 1.5
v 2 13 1.5
v 2 16 1.5
v 2 17 1.5
v -3 15 0.5
v -3 19 0.5
v -3 20 0.5
v -2 15 0.5
v -2 19 0.5
v -2 20 0.5
v -2 2 -0.5
v -2 3 -0.5
v -1 2 -0.5
v -1 3 -0.5
v 1 2 -0.5
v 1 3 -0.5
v 2 2 -0.5
v 2 3 -0.5
v -3 2 -1.5
v -3 3 -1.5
v -2 2 -1.5
v -2 3 -1.5
v 2 2 -1.5
v 2 3 -1.5
v 3 2 -1.5
v 3 3 -1.5
v -4 2 -2.5
v -4 3 -2.5
v -3 2 -2.5
v -3 3 -2.5
v 3 2 -2.5
v 3 3 -2.5
v 4 2 -2.5
v 4 3 -2.5
v -5 0 -3.5
v -5 1 -3.5
v -4 0 -3.5
v -4 1 -3.5
v 4 0 -3.5
v 4 1 -3.5
v 5 0 -3.5
v 5 1 -3.5
v -5 0 4.5
v -5 1 4.5
v -4 0 4.5
v -4 1 4.5
v 4 0 4.5
v 4 1 4.5
v 5 0 4.5
v 5 1 4.5
v -4 2 3.5
v -4 3 3.5
v -3 2 3.5
v -3 3 3.5
v 3 2 3.5
v 3 3 3.5
v 4 2 3.5
v 4 3 3.5
v -3 2 2.5
v -3 3 2.5
v -2 2 2.5
v -2 3 2.5
v 0 15 2.5
v 0 19 2.5
v 1 19 2.5
v 2 2 2.5
v 2 3 2.5
v 2 15 2.5
v 2 19 2.5
v 3 2 2.5
v 3 3 2.5
v -2 2 1.5
v -2 3 1.5
v -1 2 1.5
v -1 3 1.5
v 0 19 1.5
v 0 20 1.5
v 1 2 1.5
v 1 3 1.5
v 1 19 1.5
v 1 20 1.5
v 2 2 1.5
v 2 3 1.5
v -1 3 0.5
v -1 12 0.5
v -1 17 0.5
v -1 19 0.5
v -1 20 0.5
v 0 3 0.5
v 0 12 0.5
v 0 17 0.5
v 0 20 0.5
v 1 12 0.5
v 1 13 0.5
v 1 14 0.5
v 1 15 0.5
v 1 16 0.5
v 1 17 0.5
v 2 12 0.5
v 2 13 0.5
v 2 16 0.5
v 2 17 0.5
v -3 19 -0.5
v -3 20 -0.5
v -2 19 -0.5
v -1 2 -0.5
v -1 3 -0.5
v -1 19 -0.5
v -1 20 -0.5
v 0 12 -0.5
v 0 13 -0.5
v 0 14 -0.5
v 0 15 -0.5
v 0 16 -0.5
v 0 17 -0.5
v 1 2 -0.5
v 1 3 -0.5
v 1 12 -0.5
v 1 13 -0.5
v 1 14 -0.5
v 1 15 -0.5
v 1 16 -0.5
v 1 17 -0.5
v -3 15 -1.5
v -3 19 -1.5
v -2 2 -1.5
v -2 3 -1.5
v -2 15 -1.5
v -2 19 -1.5
v -1 2 -1.5
v -1 3 -1.5
v -1 12 -1.5
v -1 13 -1.5
v -1 16 -1.5
v -1 17 -1.5
v 0 12 -1.5
v 0 13 -1.5
v 0 16 -1.5
v 0 17 -1.5
v 1 2 -1.5
v 1 3 -1.5
v 2 2 -1.5
v 2 3 -1.5
v -3 2 -2.5
v -3 3 -2.5
v -2 2 -2.5
v -2 3 -2.5
v 2 2 -2.5
v 2 3 -2.5
v 3 2 -2.5
v 3 3 -2.5
v -4 2 -3.5
v -4 3 -3.5
v -3 2 -3.5
v -3 3 -3.5
v 3 2 -3.5
v 3 3 -3.5
v 4 2 -3.5
v 4 3 -3.5
v -5 0 -4.5
v -5 1 -4.5
v -4 0 -4.5
v -4 1 -4.5
v 4 0 -4.5
v 4 1 -4.5
v 5 0 -4.5
v 5 1 -4.5
v -5 0 5.5
v -4 0 5.5
v 4 0 5.5
v 5 0 5.5
v -5 0 4.5
v -4 0 4.5
v 4 0 4.5
v 5 0 4.5
v -5 0 -3.5
v -4 0 -3.5
v 4 0 -3.5
v 5 0 -3.5
v -5 0 -4.5
v -4 0 -4.5
v 4 0 -4.5
v 5 0 -4.5
v -4 2 4.5
v -3 2 4.5
v 3 2 4.5
v 4 2 4.5
v -4 2 3.5
v -3 2 3.5
v -2 2 3.5
v 2 2 3.5
v 3 2 3.5
v 4 2 3.5
v -3 2 2.5
v -2 2 2.5
v -1 2 2.5
v 1 2 2.5
v 2 2 2.5
v 3 2 2.5
v -2 2 1.5
v -1 2 1.5
v 1 2 1.5
v 2 2 1.5
v -2 2 -0.5
v -1 2 -0.5
v 1 2 -0.5
v 2 2 -0.5
v -3 2 -1.5
v -2 2 -1.5
v -1 2 -1.5
v 1 2 -1.5
v 2 2 -1.5
v 3 2 -1.5
v -4 2 -2.5
v -3 2 -2.5
v -2 2 -2.5
v 2 2 -2.5
v 3 2 -2.5
v 4 2 -2.5
v -4 2 -3.5
v -3 2 -3.5
v 3 2 -3.5
v 4 2 -3.5
v 0 12 1.5
v 2 12 1.5
v -1 12 0.5
v 0 12 0.5
v 1 12 0.5
v 2 12 0.5
v 0 12 -0.5
v 1 12 -0.5
v -1 12 -1.5
v 0 12 -1.5
v 0 15 3.5
v 2 15 3.5
v 0 15 2.5
v 2 15 2.5
v -3 15 0.5
v -2 15 0.5
v -3 15 -1.5
v -2 15 -1.5
v -1 19 2.5
v 0 19 2.5
v 1 19 2.5
v -2 19 1.5
v -1 19 1.5
v 0 19 1.5
v 1 19 1.5
v -2 19 0.5
v -1 19 0.5
v -2 19 -0.5
v -1 19 -0.5
v -5 1 5.5
v -4 1 5.5
v 4 1 5.5
v 5 1 5.5
v -5 1 4.5
v -4 1 4.5
v 4 1 4.5
v 5 1 4.5
v -5 1 -3.5
v -4 1 -3.5
v 4 1 -3.5
v 5 1 -3.5
v -5 1 -4.5
v -4 1 -4.5
v 4 1 -4.5
v 5 1 -4.5
v -4 3 4.5
v -3 3 4.5
v 3 3 4.5
v 4 3 4.5
v -4 3 3.5
v -3 3 3.5
v -2 3 3.5
v 2 3 3.5
v 3 3 3.5
v 4 3 3.5
v -3 3 2.5
v -2 3 2.5
v -1 3 2.5
v 1 3 2.5
v 2 3 2.5
v 3 3 2.5
v -2 3 1.5
v -1 3 1.5
v 0 3 1.5
v 1 3 1.5
v 2 3 1.5
v -1 3 0.5
v 0 3 0.5
v -2 3 -0.5
v -1 3 -0.5
v 1 3 -0.5
v 2 3 -0.5
v -3 3 -1.5
v -2 3 -1.5
v -1 3 -1.5
v 1 3 -1.5
v 2 3 -1.5
v 3 3 -1.5
v -4 3 -2.5
v -3 3 -2.5
v -2 3 -2.5
v 2 3 -2.5
v 3 3 -2.5
v 4 3 -2.5
v -4 3 -3.5
v -3 3 -3.5
v 3 3 -3.5
v 4 3 -3.5
v 0 17 1.5
v 2 17 1.5
v -1 17 0.5
v 0 17 0.5
v 1 17 0.5
v 2 17 0.5
v 0 17 -0.5
v 1 17 -0.5
v -1 17 -1.5
v 0 17 -1.5
v 1 19 3.5
v 2 19 3.5
v 1 19 2.5
v 2 19 2.5
v -3 19 -0.5
v -2 19 -0.5
v -3 19 -1.5
v -2 19 -1.5
v 0 20 3.5
v 1 20 3.5
v -1 20 2.5
v 0 20 2.5
v -2 20 1.5
v -1 20 1.5
v 0 20 1.5
v 1 20 1.5
v -3 20 0.5
v -2 20 0.5
v -1 20 0.5
v 0 20 0.5
v -3 20 -0.5
v -1 20 -0.5

# faces
f 5/8/1 2/8/1 1/8/1
f 6/8/1 2/8/1 5/8/1
f 7/8/1 4/8/1 3/8/1
f 8/8/1 4/8/1 7/8/1
f 13/8/1 10/8/1 9/8/1
f 14/8/1 10/8/1 13/8/1
f 15/8/1 12/8/1 11/8/1
f 16/8/1 12/8/1 15/8/1
f 21/8/1 18/8/1 17/8/1
f 22/8/1 18/8/1 21/8/1
f 23/8/1 20/8/1 19/8/1
f 24/8/1 20/8/1 23/8/1
f 27/1/1 26/1/1 25/1/1
f 28/1/1 26/1/1 27/1/1
f 29/1/1 26/1/1 28/1/1
f 30/7/1 28/7/1 27/7/1
f 31/7/1 28/7/1 30/7/1
f 36/8/1 33/8/1 32/8/1
f 37/8/1 33/8/1 36/8/1
f 38/8/1 35/8/1 34/8/1
f 39/8/1 35/8/1 38/8/1
f 42/7/1 41/7/1 40/7/1
f 43/7/1 41/7/1 42/7/1
f 46/8/1 45/8/1 44/8/1
f 47/8/1 45/8/1 46/8/1
f 48/8/1 45/8/1 47/8/1
f 49/7/1 47/7/1 46/7/1
f 50/7/1 47/7/1 49/7/1
f 52/6/1 50/6/1 49/6/1
f 52/6/1 51/6/1 50/6/1
f 53/6/1 51/6/1 52/6/1
f 54/6/1 52/6/1 49/6/1
f 54/3/1 53/3/1 52/3/1
f 55/3/1 53/3/1 54/3/1
f 56/6/1 54/6/1 49/6/1
f 56/6/1 55/6/1 54/6/1
f 57/6/1 55/6/1 56/6/1
f 58/6/1 55/6/1 57/6/1
f 60/7/1 57/7/1 56/7/1
f 61/7/1 57/7/1 60/7/1
f 62/7/1 60/7/1 59/7/1
f 63/7/1 60/7/1 62/7/1
f 66/2/1 65/2/1 64/2/1
f 67/2/1 65/2/1 66/2/1
f 68/7/1 67/7/1 66/7/1
f 69/7/1 67/7/1 68/7/1
f 74/8/1 71/8/1 70/8/1
f 75/8/1 71/8/1 74/8/1
f 76/8/1 73/8/1 72/8/1
f 77/8/1 73/8/1 76/8/1
f 82/8/1 79/8/1 78/8/1
f 83/8/1 79/8/1 82/8/1
f 84/8/1 81/8/1 80/8/1
f 85/8/1 81/8/1 84/8/1
f 90/8/1 87/8/1 86/8/1
f 91/8/1 87/8/1 90/8/1
f 92/8/1 89/8/1 88/8/1
f 93/8/1 89/8/1 92/8/1
f 98/8/1 95/8/1 94/8/1
f 99/8/1 95/8/1 98/8/1
f 100/8/1 97/8/1 96/8/1
f 101/8/1 97/8/1 100/8/1
f 102/8/2 103/8/2 106/8/2
f 106/8/2 103/8/2 107/8/2
f 104/8/2 105/8/2 108/8/2
f 108/8/2 105/8/2 109/8/2
f 110/8/2 111/8/2 114/8/2
f 114/8/2 111/8/2 115/8/2
f 112/8/2 113/8/2 116/8/2
f 116/8/2 113/8/2 117/8/2
f 118/8/2 119/8/2 122/8/2
f 122/8/2 119/8/2 123/8/2
f 120/8/2 121/8/2 124/8/2
f 124/8/2 121/8/2 125/8/2
f 126/1/2 127/1/2 128/1/2
f 128/1/2 127/1/2 129/1/2
f 129/1/2 127/1/2 130/1/2
f 131/8/2 132/8/2 135/8/2
f 135/8/2 132/8/2 136/8/2
f 133/8/2 134/8/2 137/8/2
f 137/8/2 134/8/2 138/8/2
f 139/7/2 140/7/2 141/7/2
f 141/7/2 140/7/2 142/7/2
f 143/7/2 144/7/2 145/7/2
f 145/7/2 144/7/2 146/7/2
f 147/6/2 148/6/2 149/6/2
f 149/6/2 148/6/2 150/6/2
f 149/3/2 150/3/2 151/3/2
f 151/3/2 150/3/2 152/3/2
f 152/3/2 150/3/2 153/3/2
f 153/3/2 150/3/2 154/3/2
f 153/6/2 154/6/2 157/6/2
f 157/6/2 154/6/2 158/6/2
f 155/7/2 156/7/2 159/7/2
f 159/7/2 156/7/2 160/7/2
f 160/7/2 156/7/2 161/7/2
f 162/8/2 163/8/2 164/8/2
f 164/8/2 163/8/2 165/8/2
f 166/6/2 167/6/2 168/6/2
f 168/6/2 167/6/2 169/6/2
f 168/4/2 169/4/2 170/4/2
f 170/4/2 169/4/2 171/4/2
f 170/6/2 171/6/2 172/6/2
f 172/6/2 171/6/2 173/6/2
f 172/5/2 173/5/2 174/5/2
f 174/5/2 173/5/2 175/5/2
f 174/6/2 175/6/2 176/6/2
f 176/6/2 175/6/2 177/6/2
f 178/7/2 179/7/2 181/7/2
f 179/7/2 180/7/2 181/7/2
f 181/7/2 180/7/2 182/7/2
f 183/8/2 184/8/2 187/8/2
f 187/8/2 184/8/2 188/8/2
f 185/8/2 186/8/2 189/8/2
f 189/8/2 186/8/2 190/8/2
f 191/6/2 192/6/2 193/6/2
f 193/6/2 192/6/2 194/6/2
f 193/3/2 194/3/2 197/3/2
f 197/3/2 194/3/2 198/3/2
f 197/6/2 198/6/2 199/6/2
f 199/6/2 198/6/2 200/6/2
f 195/2/2 196/2/2 201/2/2
f 201/2/2 196/2/2 202/2/2
f 203/8/2 204/8/2 207/8/2
f 207/8/2 204/8/2 208/8/2
f 205/8/2 206/8/2 209/8/2
f 209/8/2 206/8/2 210/8/2
f 211/8/2 212/8/2 215/8/2
f 215/8/2 212/8/2 216/8/2
f 213/8/2 214/8/2 217/8/2
f 217/8/2 214/8/2 218/8/2
f 219/8/2 220/8/2 223/8/2
f 223/8/2 220/8/2 224/8/2
f 221/8/2 222/8/2 225/8/2
f 225/8/2 222/8/2 226/8/2
f 229/8/3 228/8/3 227/8/3
f 230/8/3 228/8/3 229/8/3
f 233/8/3 232/8/3 231/8/3
f 234/8/3 232/8/3 233/8/3
f 237/8/3 236/8/3 235/8/3
f 238/8/3 236/8/3 237/8/3
f 241/8/3 240/8/3 239/8/3
f 242/8/3 240/8/3 241/8/3
f 245/8/3 244/8/3 243/8/3
f 246/8/3 244/8/3 245/8/3
f 250/2/3 248/2/3 247/2/3
f 250/7/3 249/7/3 248/7/3
f 251/7/3 249/7/3 250/7/3
f 254/2/3 250/2/3 247/2/3
f 255/2/3 250/2/3 254/2/3
f 256/8/3 253/8/3 252/8/3
f 257/8/3 253/8/3 256/8/3
f 260/8/3 259/8/3 258/8/3
f 261/8/3 259/8/3 260/8/3
f 264/7/3 263/7/3 262/7/3
f 265/7/3 263/7/3 264/7/3
f 268/8/3 267/8/3 266/8/3
f 269/8/3 267/8/3 268/8/3
f 276/7/3 271/7/3 270/7/3
f 277/7/3 271/7/3 276/7/3
f 278/8/3 273/8/3 272/8/3
f 278/7/3 274/7/3 273/7/3
f 279/6/3 275/6/3 274/6/3
f 279/7/3 274/7/3 278/7/3
f 280/7/3 276/7/3 275/7/3
f 280/6/3 275/6/3 279/6/3
f 281/7/3 276/7/3 280/7/3
f 282/8/3 278/8/3 272/8/3
f 283/8/3 278/8/3 282/8/3
f 284/6/3 280/6/3 279/6/3
f 285/6/3 280/6/3 284/6/3
f 286/6/3 284/6/3 279/6/3
f 287/3/3 285/3/3 284/3/3
f 287/6/3 284/6/3 286/6/3
f 288/6/3 280/6/3 285/6/3
f 288/3/3 285/3/3 287/3/3
f 289/6/3 280/6/3 288/6/3
f 293/1/3 291/1/3 290/1/3
f 294/7/3 292/7/3 291/7/3
f 294/1/3 291/1/3 293/1/3
f 295/7/3 292/7/3 294/7/3
f 298/8/3 297/8/3 296/8/3
f 299/8/3 297/8/3 298/8/3
f 302/8/3 301/8/3 300/8/3
f 303/8/3 301/8/3 302/8/3
f 306/8/3 305/8/3 304/8/3
f 307/8/3 305/8/3 306/8/3
f 310/8/3 309/8/3 308/8/3
f 311/8/3 309/8/3 310/8/3
f 314/8/3 313/8/3 312/8/3
f 315/8/3 313/8/3 314/8/3
f 318/8/3 317/8/3 316/8/3
f 319/8/3 317/8/3 318/8/3
f 322/8/3 321/8/3 320/8/3
f 323/8/3 321/8/3 322/8/3
f 326/8/3 325/8/3 324/8/3
f 327/8/3 325/8/3 326/8/3
f 328/8/4 329/8/4 330/8/4
f 330/8/4 329/8/4 331/8/4
f 332/8/4 333/8/4 334/8/4
f 334/8/4 333/8/4 335/8/4
f 336/8/4 337/8/4 338/8/4
f 338/8/4 337/8/4 339/8/4
f 340/8/4 341/8/4 342/8/4
f 342/8/4 341/8/4 343/8/4
f 344/8/4 345/8/4 346/8/4
f 346/8/4 345/8/4 347/8/4
f 348/2/4 349/2/4 350/2/4
f 348/2/4 350/2/4 353/2/4
f 353/2/4 350/2/4 354/2/4
f 351/8/4 352/8/4 355/8/4
f 355/8/4 352/8/4 356/8/4
f 357/8/4 358/8/4 359/8/4
f 359/8/4 358/8/4 360/8/4
f 361/7/4 362/7/4 365/7/4
f 365/7/4 362/7/4 366/7/4
f 363/8/4 364/8/4 367/8/4
f 367/8/4 364/8/4 368/8/4
f 369/7/4 370/7/4 374/7/4
f 374/7/4 370/7/4 375/7/4
f 372/7/4 373/7/4 376/7/4
f 371/7/4 372/7/4 376/7/4
f 376/7/4 373/7/4 377/7/4
f 378/6/4 379/6/4 384/6/4
f 379/3/4 380/3/4 385/3/4
f 384/6/4 379/6/4 385/6/4
f 380/3/4 381/3/4 385/3/4
f 381/3/4 382/3/4 385/3/4
f 382/6/4 383/6/4 386/6/4
f 385/3/4 382/3/4 386/3/4
f 386/6/4 383/6/4 387/6/4
f 388/7/4 389/7/4 390/7/4
f 390/7/4 389/7/4 393/7/4
f 393/7/4 389/7/4 394/7/4
f 391/8/4 392/8/4 401/8/4
f 401/8/4 392/8/4 402/8/4
f 395/6/4 396/6/4 403/6/4
f 396/4/4 397/4/4 404/4/4
f 403/6/4 396/6/4 404/6/4
f 397/6/4 398/6/4 405/6/4
f 404/4/4 397/4/4 405/4/4
f 398/5/4 399/5/4 406/5/4
f 405/6/4 398/6/4 406/6/4
f 399/6/4 400/6/4 407/6/4
f 406/5/4 399/5/4 407/5/4
f 407/6/4 400/6/4 408/6/4
f 409/1/4 410/1/4 413/1/4
f 413/1/4 410/1/4 414/1/4
f 411/8/4 412/8/4 415/8/4
f 415/8/4 412/8/4 416/8/4
f 417/6/4 418/6/4 421/6/4
f 418/3/4 419/3/4 422/3/4
f 421/6/4 418/6/4 422/6/4
f 419/6/4 420/6/4 423/6/4
f 422/3/4 419/3/4 423/3/4
f 423/6/4 420/6/4 424/6/4
f 425/8/4 426/8/4 427/8/4
f 427/8/4 426/8/4 428/8/4
f 429/8/4 430/8/4 431/8/4
f 431/8/4 430/8/4 432/8/4
f 433/8/4 434/8/4 435/8/4
f 435/8/4 434/8/4 436/8/4
f 437/8/4 438/8/4 439/8/4
f 439/8/4 438/8/4 440/8/4
f 441/8/4 442/8/4 443/8/4
f 443/8/4 442/8/4 444/8/4
f 445/8/4 446/8/4 447/8/4
f 447/8/4 446/8/4 448/8/4
f 449/8/4 450/8/4 451/8/4
f 451/8/4 450/8/4 452/8/4
f 457/8/5 454/8/5 453/8/5
f 458/8/5 454/8/5 457/8/5
f 459/8/5 456/8/5 455/8/5
f 460/8/5 456/8/5 459/8/5
f 465/8/5 462/8/5 461/8/5
f 466/8/5 462/8/5 465/8/5
f 467/8/5 464/8/5 463/8/5
f 468/8/5 464/8/5 467/8/5
f 473/8/5 470/8/5 469/8/5
f 474/8/5 470/8/5 473/8/5
f 477/8/5 472/8/5 471/8/5
f 478/8/5 472/8/5 477/8/5
f 479/8/5 475/8/5 474/8/5
f 480/8/5 475/8/5 479/8/5
f 483/8/5 477/8/5 476/8/5
f 484/8/5 477/8/5 483/8/5
f 485/8/5 481/8/5 480/8/5
f 486/8/5 481/8/5 485/8/5
f 487/8/5 483/8/5 482/8/5
f 488/8/5 483/8/5 487/8/5
f 490/8/5 487/8/5 486/8/5
f 491/8/5 487/8/5 490/8/5
f 494/8/5 490/8/5 489/8/5
f 495/8/5 490/8/5 494/8/5
f 496/8/5 492/8/5 491/8/5
f 497/8/5 492/8/5 496/8/5
f 500/8/5 494/8/5 493/8/5
f 501/8/5 494/8/5 500/8/5
f 502/8/5 498/8/5 497/8/5
f 503/8/5 498/8/5 502/8/5
f 505/8/5 500/8/5 499/8/5
f 506/8/5 500/8/5 505/8/5
f 507/8/5 504/8/5 503/8/5
f 508/8/5 504/8/5 507/8/5
f 512/6/5 510/6/5 509/6/5
f 513/6/5 510/6/5 512/6/5
f 514/6/5 510/6/5 513/6/5
f 515/6/5 512/6/5 511/6/5
f 515/6/5 513/6/5 512/6/5
f 516/6/5 513/6/5 515/6/5
f 517/6/5 515/6/5 511/6/5
f 518/6/5 515/6/5 517/6/5
f 521/2/5 520/2/5 519/2/5
f 522/2/5 520/2/5 521/2/5
f 525/1/5 524/1/5 523/1/5
f 526/1/5 524/1/5 525/1/5
f 531/7/5 528/7/5 527/7/5
f 531/7/5 529/7/5 528/7/5
f 532/7/5 529/7/5 531/7/5
f 533/7/5 529/7/5 532/7/5
f 534/7/5 531/7/5 530/7/5
f 535/7/5 531/7/5 534/7/5
f 536/7/5 535/7/5 534/7/5
f 537/7/5 535/7/5 536/7/5
f 538/8/6 539/8/6 542/8/6
f 542/8/6 539/8/6 543/8/6
f 540/8/6 541/8/6 544/8/6
f 544/8/6 541/8/6 545/8/6
f 546/8/6 547/8/6 550/8/6
f 550/8/6 547/8/6 551/8/6
f 548/8/6 549/8/6 552/8/6
f 552/8/6 549/8/6 553/8/6
f 554/8/6 555/8/6 558/8/6
f 558/8/6 555/8/6 559/8/6
f 556/8/6 557/8/6 562/8/6
f 562/8/6 557/8/6 563/8/6
f 559/8/6 560/8/6 564/8/6
f 564/8/6 560/8/6 565/8/6
f 561/8/6 562/8/6 568/8/6
f 568/8/6 562/8/6 569/8/6
f 565/8/6 566/8/6 570/8/6
f 570/8/6 566/8/6 571/8/6
f 567/8/6 568/8/6 573/8/6
f 573/8/6 568/8/6 574/8/6
f 572/8/6 573/8/6 576/8/6
f 575/8/6 576/8/6 578/8/6
f 576/8/6 573/8/6 579/8/6
f 578/8/6 576/8/6 579/8/6
f 577/8/6 578/8/6 582/8/6
f 582/8/6 578/8/6 583/8/6
f 579/8/6 580/8/6 584/8/6
f 584/8/6 580/8/6 585/8/6
f 581/8/6 582/8/6 588/8/6
f 588/8/6 582/8/6 589/8/6
f 585/8/6 586/8/6 590/8/6
f 590/8/6 586/8/6 591/8/6
f 587/8/6 588/8/6 593/8/6
f 593/8/6 588/8/6 594/8/6
f 591/8/6 592/8/6 595/8/6
f 595/8/6 592/8/6 596/8/6
f 597/6/6 598/6/6 600/6/6
f 600/6/6 598/6/6 601/6/6
f 601/6/6 598/6/6 602/6/6
f 599/6/6 600/6/6 603/6/6
f 600/6/6 601/6/6 603/6/6
f 603/6/6 601/6/6 604/6/6
f 599/6/6 603/6/6 605/6/6
f 605/6/6 603/6/6 606/6/6
f 607/2/6 608/2/6 609/2/6
f 609/2/6 608/2/6 610/2/6
f 611/1/6 612/1/6 613/1/6
f 613/1/6 612/1/6 614/1/6
f 615/7/6 616/7/6 618/7/6
f 617/7/6 618/7/6 620/7/6
f 618/7/6 616/7/6 621/7/6
f 620/7/6 618/7/6 621/7/6
f 621/7/6 616/7/6 622/7/6
f 619/7/6 620/7/6 624/7/6
f 620/7/6 621/7/6 624/7/6
f 624/7/6 621/7/6 625/7/6
f 625/7/6 621/7/6 626/7/6
f 623/7/6 624/7/6 627/7/6
f 624/7/6 625/7/6 627/7/6
f 627/7/6 625/7/6 628/7/6
